<svg xmlns="http://www.w3.org/2000/svg" version="1.1" xmlns:xlink="http://www.w3.org/1999/xlink" xmlns:svgjs="http://svgjs.com/svgjs" width="1220" height="480" preserveAspectRatio="none" viewBox="0 0 1220 480"><g mask="url(&quot;#SvgjsMask1154&quot;)" fill="none"><path d="M-47.37 557.84L-47.37 557.84" stroke="rgba(45, 52, 54, 1)" stroke-width="1.5"></path><path d="M-47.37 557.84L73.4 555.82" stroke="rgba(45, 52, 54, 1)" stroke-width="1.5"></path><path d="M-47.37 557.84L-42.91 692.57" stroke="rgba(45, 52, 54, 1)" stroke-width="1.5"></path><path d="M-47.37 557.84L65.82 650.75" stroke="rgba(45, 52, 54, 1)" stroke-width="1.5"></path><path d="M-47.37 557.84L102.58 369.51" stroke="rgba(45, 52, 54, 1)" stroke-width="1.5"></path><path d="M-42.91 692.57L-42.91 692.57" stroke="rgba(45, 52, 54, 1)" stroke-width="1.5"></path><path d="M-42.91 692.57L65.82 650.75" stroke="rgba(45, 52, 54, 1)" stroke-width="1.5"></path><path d="M-42.91 692.57L73.4 555.82" stroke="rgba(45, 52, 54, 1)" stroke-width="1.5"></path><path d="M102.58 369.51L102.58 369.51" stroke="rgba(45, 52, 54, 1)" stroke-width="1.5"></path><path d="M102.58 369.51L197.14 400.24" stroke="rgba(45, 52, 54, 1)" stroke-width="1.5"></path><path d="M102.58 369.51L73.4 555.82" stroke="rgba(45, 52, 54, 1)" stroke-width="1.5"></path><path d="M102.58 369.51L261.8 519.91" stroke="rgba(45, 52, 54, 1)" stroke-width="1.5"></path><path d="M73.4 555.82L73.4 555.82" stroke="rgba(45, 52, 54, 1)" stroke-width="1.5"></path><path d="M73.4 555.82L65.82 650.75" stroke="rgba(45, 52, 54, 1)" stroke-width="1.5"></path><path d="M65.82 650.75L65.82 650.75" stroke="rgba(45, 52, 54, 1)" stroke-width="1.5"></path><path d="M197.14 400.24L197.14 400.24" stroke="rgba(45, 52, 54, 1)" stroke-width="1.5"></path><path d="M197.14 400.24L261.8 519.91" stroke="rgba(45, 52, 54, 1)" stroke-width="1.5"></path><path d="M197.14 400.24L369.56 338.79" stroke="rgba(45, 52, 54, 1)" stroke-width="1.5"></path><path d="M261.8 519.91L261.8 519.91" stroke="rgba(45, 52, 54, 1)" stroke-width="1.5"></path><path d="M261.8 519.91L393.19 509.72" stroke="rgba(45, 52, 54, 1)" stroke-width="1.5"></path><path d="M208 705.54L208 705.54" stroke="rgba(45, 52, 54, 1)" stroke-width="1.5"></path><path d="M208 705.54L344.13 699.62" stroke="rgba(45, 52, 54, 1)" stroke-width="1.5"></path><path d="M208 705.54L65.82 650.75" stroke="rgba(45, 52, 54, 1)" stroke-width="1.5"></path><path d="M208 705.54L261.8 519.91" stroke="rgba(45, 52, 54, 1)" stroke-width="1.5"></path><path d="M208 705.54L73.4 555.82" stroke="rgba(45, 52, 54, 1)" stroke-width="1.5"></path><path d="M369.56 338.79L369.56 338.79" stroke="rgba(45, 52, 54, 1)" stroke-width="1.5"></path><path d="M369.56 338.79L511.08 384.28" stroke="rgba(45, 52, 54, 1)" stroke-width="1.5"></path><path d="M369.56 338.79L393.19 509.72" stroke="rgba(45, 52, 54, 1)" stroke-width="1.5"></path><path d="M369.56 338.79L558.96 252.86" stroke="rgba(45, 52, 54, 1)" stroke-width="1.5"></path><path d="M369.56 338.79L261.8 519.91" stroke="rgba(45, 52, 54, 1)" stroke-width="1.5"></path><path d="M369.56 338.79L505.37 533.14" stroke="rgba(45, 52, 54, 1)" stroke-width="1.5"></path><path d="M393.19 509.72L393.19 509.72" stroke="rgba(45, 52, 54, 1)" stroke-width="1.5"></path><path d="M393.19 509.72L505.37 533.14" stroke="rgba(45, 52, 54, 1)" stroke-width="1.5"></path><path d="M393.19 509.72L511.08 384.28" stroke="rgba(45, 52, 54, 1)" stroke-width="1.5"></path><path d="M393.19 509.72L344.13 699.62" stroke="rgba(45, 52, 54, 1)" stroke-width="1.5"></path><path d="M344.13 699.62L344.13 699.62" stroke="rgba(45, 52, 54, 1)" stroke-width="1.5"></path><path d="M558.96 252.86L558.96 252.86" stroke="rgba(45, 52, 54, 1)" stroke-width="1.5"></path><path d="M558.96 252.86L511.08 384.28" stroke="rgba(45, 52, 54, 1)" stroke-width="1.5"></path><path d="M558.96 252.86L696.46 193.65" stroke="rgba(45, 52, 54, 1)" stroke-width="1.5"></path><path d="M558.96 252.86L691.91 393.88" stroke="rgba(45, 52, 54, 1)" stroke-width="1.5"></path><path d="M558.96 252.86L638.69 501.78" stroke="rgba(45, 52, 54, 1)" stroke-width="1.5"></path><path d="M558.96 252.86L820.22 213.47" stroke="rgba(45, 52, 54, 1)" stroke-width="1.5"></path><path d="M511.08 384.28L511.08 384.28" stroke="rgba(45, 52, 54, 1)" stroke-width="1.5"></path><path d="M505.37 533.14L505.37 533.14" stroke="rgba(45, 52, 54, 1)" stroke-width="1.5"></path><path d="M505.37 533.14L638.69 501.78" stroke="rgba(45, 52, 54, 1)" stroke-width="1.5"></path><path d="M505.37 533.14L511.08 384.28" stroke="rgba(45, 52, 54, 1)" stroke-width="1.5"></path><path d="M560.38 712.43L560.38 712.43" stroke="rgba(45, 52, 54, 1)" stroke-width="1.5"></path><path d="M560.38 712.43L695.31 691.34" stroke="rgba(45, 52, 54, 1)" stroke-width="1.5"></path><path d="M560.38 712.43L505.37 533.14" stroke="rgba(45, 52, 54, 1)" stroke-width="1.5"></path><path d="M560.38 712.43L344.13 699.62" stroke="rgba(45, 52, 54, 1)" stroke-width="1.5"></path><path d="M560.38 712.43L638.69 501.78" stroke="rgba(45, 52, 54, 1)" stroke-width="1.5"></path><path d="M696.46 193.65L696.46 193.65" stroke="rgba(45, 52, 54, 1)" stroke-width="1.5"></path><path d="M696.46 193.65L820.22 213.47" stroke="rgba(45, 52, 54, 1)" stroke-width="1.5"></path><path d="M696.46 193.65L801.74 58.3" stroke="rgba(45, 52, 54, 1)" stroke-width="1.5"></path><path d="M696.46 193.65L691.91 393.88" stroke="rgba(45, 52, 54, 1)" stroke-width="1.5"></path><path d="M696.46 193.65L844.86 399.24" stroke="rgba(45, 52, 54, 1)" stroke-width="1.5"></path><path d="M696.46 193.65L796.75 -44.41" stroke="rgba(45, 52, 54, 1)" stroke-width="1.5"></path><path d="M691.91 393.88L691.91 393.88" stroke="rgba(45, 52, 54, 1)" stroke-width="1.5"></path><path d="M691.91 393.88L638.69 501.78" stroke="rgba(45, 52, 54, 1)" stroke-width="1.5"></path><path d="M691.91 393.88L844.86 399.24" stroke="rgba(45, 52, 54, 1)" stroke-width="1.5"></path><path d="M691.91 393.88L511.08 384.28" stroke="rgba(45, 52, 54, 1)" stroke-width="1.5"></path><path d="M691.91 393.88L795.55 544.15" stroke="rgba(45, 52, 54, 1)" stroke-width="1.5"></path><path d="M638.69 501.78L638.69 501.78" stroke="rgba(45, 52, 54, 1)" stroke-width="1.5"></path><path d="M638.69 501.78L795.55 544.15" stroke="rgba(45, 52, 54, 1)" stroke-width="1.5"></path><path d="M638.69 501.78L511.08 384.28" stroke="rgba(45, 52, 54, 1)" stroke-width="1.5"></path><path d="M638.69 501.78L695.31 691.34" stroke="rgba(45, 52, 54, 1)" stroke-width="1.5"></path><path d="M695.31 691.34L695.31 691.34" stroke="rgba(45, 52, 54, 1)" stroke-width="1.5"></path><path d="M695.31 691.34L831.2 686.3" stroke="rgba(45, 52, 54, 1)" stroke-width="1.5"></path><path d="M695.31 691.34L795.55 544.15" stroke="rgba(45, 52, 54, 1)" stroke-width="1.5"></path><path d="M796.75 -44.41L796.75 -44.41" stroke="rgba(45, 52, 54, 1)" stroke-width="1.5"></path><path d="M796.75 -44.41L801.74 58.3" stroke="rgba(45, 52, 54, 1)" stroke-width="1.5"></path><path d="M796.75 -44.41L984.29 59.4" stroke="rgba(45, 52, 54, 1)" stroke-width="1.5"></path><path d="M796.75 -44.41L1010.22 -97.76" stroke="rgba(45, 52, 54, 1)" stroke-width="1.5"></path><path d="M801.74 58.3L801.74 58.3" stroke="rgba(45, 52, 54, 1)" stroke-width="1.5"></path><path d="M801.74 58.3L820.22 213.47" stroke="rgba(45, 52, 54, 1)" stroke-width="1.5"></path><path d="M801.74 58.3L984.29 59.4" stroke="rgba(45, 52, 54, 1)" stroke-width="1.5"></path><path d="M801.74 58.3L986.56 229.82" stroke="rgba(45, 52, 54, 1)" stroke-width="1.5"></path><path d="M820.22 213.47L820.22 213.47" stroke="rgba(45, 52, 54, 1)" stroke-width="1.5"></path><path d="M820.22 213.47L986.56 229.82" stroke="rgba(45, 52, 54, 1)" stroke-width="1.5"></path><path d="M820.22 213.47L844.86 399.24" stroke="rgba(45, 52, 54, 1)" stroke-width="1.5"></path><path d="M844.86 399.24L844.86 399.24" stroke="rgba(45, 52, 54, 1)" stroke-width="1.5"></path><path d="M844.86 399.24L944.65 383.23" stroke="rgba(45, 52, 54, 1)" stroke-width="1.5"></path><path d="M844.86 399.24L795.55 544.15" stroke="rgba(45, 52, 54, 1)" stroke-width="1.5"></path><path d="M795.55 544.15L795.55 544.15" stroke="rgba(45, 52, 54, 1)" stroke-width="1.5"></path><path d="M795.55 544.15L831.2 686.3" stroke="rgba(45, 52, 54, 1)" stroke-width="1.5"></path><path d="M795.55 544.15L994.29 559.84" stroke="rgba(45, 52, 54, 1)" stroke-width="1.5"></path><path d="M831.2 686.3L831.2 686.3" stroke="rgba(45, 52, 54, 1)" stroke-width="1.5"></path><path d="M831.2 686.3L965.82 686.46" stroke="rgba(45, 52, 54, 1)" stroke-width="1.5"></path><path d="M1010.22 -97.76L1010.22 -97.76" stroke="rgba(45, 52, 54, 1)" stroke-width="1.5"></path><path d="M1010.22 -97.76L1114.14 -98.05" stroke="rgba(45, 52, 54, 1)" stroke-width="1.5"></path><path d="M1010.22 -97.76L984.29 59.4" stroke="rgba(45, 52, 54, 1)" stroke-width="1.5"></path><path d="M1010.22 -97.76L1144.85 79.46" stroke="rgba(45, 52, 54, 1)" stroke-width="1.5"></path><path d="M1010.22 -97.76L1255.26 -96.57" stroke="rgba(45, 52, 54, 1)" stroke-width="1.5"></path><path d="M984.29 59.4L984.29 59.4" stroke="rgba(45, 52, 54, 1)" stroke-width="1.5"></path><path d="M984.29 59.4L1144.85 79.46" stroke="rgba(45, 52, 54, 1)" stroke-width="1.5"></path><path d="M984.29 59.4L986.56 229.82" stroke="rgba(45, 52, 54, 1)" stroke-width="1.5"></path><path d="M986.56 229.82L986.56 229.82" stroke="rgba(45, 52, 54, 1)" stroke-width="1.5"></path><path d="M986.56 229.82L1094.42 339.06" stroke="rgba(45, 52, 54, 1)" stroke-width="1.5"></path><path d="M986.56 229.82L944.65 383.23" stroke="rgba(45, 52, 54, 1)" stroke-width="1.5"></path><path d="M944.65 383.23L944.65 383.23" stroke="rgba(45, 52, 54, 1)" stroke-width="1.5"></path><path d="M944.65 383.23L1094.42 339.06" stroke="rgba(45, 52, 54, 1)" stroke-width="1.5"></path><path d="M944.65 383.23L994.29 559.84" stroke="rgba(45, 52, 54, 1)" stroke-width="1.5"></path><path d="M944.65 383.23L820.22 213.47" stroke="rgba(45, 52, 54, 1)" stroke-width="1.5"></path><path d="M944.65 383.23L795.55 544.15" stroke="rgba(45, 52, 54, 1)" stroke-width="1.5"></path><path d="M994.29 559.84L994.29 559.84" stroke="rgba(45, 52, 54, 1)" stroke-width="1.5"></path><path d="M994.29 559.84L965.82 686.46" stroke="rgba(45, 52, 54, 1)" stroke-width="1.5"></path><path d="M994.29 559.84L1148.37 536.41" stroke="rgba(45, 52, 54, 1)" stroke-width="1.5"></path><path d="M965.82 686.46L965.82 686.46" stroke="rgba(45, 52, 54, 1)" stroke-width="1.5"></path><path d="M965.82 686.46L1130.76 673.48" stroke="rgba(45, 52, 54, 1)" stroke-width="1.5"></path><path d="M1114.14 -98.05L1114.14 -98.05" stroke="rgba(45, 52, 54, 1)" stroke-width="1.5"></path><path d="M1114.14 -98.05L1255.26 -96.57" stroke="rgba(45, 52, 54, 1)" stroke-width="1.5"></path><path d="M1114.14 -98.05L1144.85 79.46" stroke="rgba(45, 52, 54, 1)" stroke-width="1.5"></path><path d="M1114.14 -98.05L984.29 59.4" stroke="rgba(45, 52, 54, 1)" stroke-width="1.5"></path><path d="M1114.14 -98.05L1264.88 81.69" stroke="rgba(45, 52, 54, 1)" stroke-width="1.5"></path><path d="M1144.85 79.46L1144.85 79.46" stroke="rgba(45, 52, 54, 1)" stroke-width="1.5"></path><path d="M1144.85 79.46L1264.88 81.69" stroke="rgba(45, 52, 54, 1)" stroke-width="1.5"></path><path d="M1094.42 339.06L1094.42 339.06" stroke="rgba(45, 52, 54, 1)" stroke-width="1.5"></path><path d="M1094.42 339.06L1263.3 373.36" stroke="rgba(45, 52, 54, 1)" stroke-width="1.5"></path><path d="M1094.42 339.06L1148.37 536.41" stroke="rgba(45, 52, 54, 1)" stroke-width="1.5"></path><path d="M1094.42 339.06L994.29 559.84" stroke="rgba(45, 52, 54, 1)" stroke-width="1.5"></path><path d="M1148.37 536.41L1148.37 536.41" stroke="rgba(45, 52, 54, 1)" stroke-width="1.5"></path><path d="M1148.37 536.41L1130.76 673.48" stroke="rgba(45, 52, 54, 1)" stroke-width="1.5"></path><path d="M1148.37 536.41L1287.74 525.72" stroke="rgba(45, 52, 54, 1)" stroke-width="1.5"></path><path d="M1130.76 673.48L1130.76 673.48" stroke="rgba(45, 52, 54, 1)" stroke-width="1.5"></path><path d="M1130.76 673.48L1297.82 712.13" stroke="rgba(45, 52, 54, 1)" stroke-width="1.5"></path><path d="M1130.76 673.48L994.29 559.84" stroke="rgba(45, 52, 54, 1)" stroke-width="1.5"></path><path d="M1130.76 673.48L1287.74 525.72" stroke="rgba(45, 52, 54, 1)" stroke-width="1.5"></path><path d="M1255.26 -96.57L1255.26 -96.57" stroke="rgba(45, 52, 54, 1)" stroke-width="1.5"></path><path d="M1255.26 -96.57L1411.33 -42.85" stroke="rgba(45, 52, 54, 1)" stroke-width="1.5"></path><path d="M1255.26 -96.57L1264.88 81.69" stroke="rgba(45, 52, 54, 1)" stroke-width="1.5"></path><path d="M1255.26 -96.57L1144.85 79.46" stroke="rgba(45, 52, 54, 1)" stroke-width="1.5"></path><path d="M1255.26 -96.57L1427.13 58.71" stroke="rgba(45, 52, 54, 1)" stroke-width="1.5"></path><path d="M1264.88 81.69L1264.88 81.69" stroke="rgba(45, 52, 54, 1)" stroke-width="1.5"></path><path d="M1264.88 81.69L1312.34 190.19" stroke="rgba(45, 52, 54, 1)" stroke-width="1.5"></path><path d="M1264.88 81.69L1427.13 58.71" stroke="rgba(45, 52, 54, 1)" stroke-width="1.5"></path><path d="M1312.34 190.19L1312.34 190.19" stroke="rgba(45, 52, 54, 1)" stroke-width="1.5"></path><path d="M1312.34 190.19L1427.13 58.71" stroke="rgba(45, 52, 54, 1)" stroke-width="1.5"></path><path d="M1312.34 190.19L1263.3 373.36" stroke="rgba(45, 52, 54, 1)" stroke-width="1.5"></path><path d="M1312.34 190.19L1144.85 79.46" stroke="rgba(45, 52, 54, 1)" stroke-width="1.5"></path><path d="M1312.34 190.19L1461.13 394.08" stroke="rgba(45, 52, 54, 1)" stroke-width="1.5"></path><path d="M1263.3 373.36L1263.3 373.36" stroke="rgba(45, 52, 54, 1)" stroke-width="1.5"></path><path d="M1263.3 373.36L1287.74 525.72" stroke="rgba(45, 52, 54, 1)" stroke-width="1.5"></path><path d="M1263.3 373.36L1461.13 394.08" stroke="rgba(45, 52, 54, 1)" stroke-width="1.5"></path><path d="M1287.74 525.72L1287.74 525.72" stroke="rgba(45, 52, 54, 1)" stroke-width="1.5"></path><path d="M1287.74 525.72L1421.47 520.89" stroke="rgba(45, 52, 54, 1)" stroke-width="1.5"></path><path d="M1287.74 525.72L1297.82 712.13" stroke="rgba(45, 52, 54, 1)" stroke-width="1.5"></path><path d="M1287.74 525.72L1415.93 672.9" stroke="rgba(45, 52, 54, 1)" stroke-width="1.5"></path><path d="M1297.82 712.13L1297.82 712.13" stroke="rgba(45, 52, 54, 1)" stroke-width="1.5"></path><path d="M1297.82 712.13L1415.93 672.9" stroke="rgba(45, 52, 54, 1)" stroke-width="1.5"></path><path d="M1297.82 712.13L1421.47 520.89" stroke="rgba(45, 52, 54, 1)" stroke-width="1.5"></path><path d="M1411.33 -42.85L1411.33 -42.85" stroke="rgba(45, 52, 54, 1)" stroke-width="1.5"></path><path d="M1411.33 -42.85L1427.13 58.71" stroke="rgba(45, 52, 54, 1)" stroke-width="1.5"></path><path d="M1411.33 -42.85L1264.88 81.69" stroke="rgba(45, 52, 54, 1)" stroke-width="1.5"></path><path d="M1411.33 -42.85L1312.34 190.19" stroke="rgba(45, 52, 54, 1)" stroke-width="1.5"></path><path d="M1411.33 -42.85L1144.85 79.46" stroke="rgba(45, 52, 54, 1)" stroke-width="1.5"></path><path d="M1427.13 58.71L1427.13 58.71" stroke="rgba(45, 52, 54, 1)" stroke-width="1.5"></path><path d="M1461.13 394.08L1461.13 394.08" stroke="rgba(45, 52, 54, 1)" stroke-width="1.5"></path><path d="M1461.13 394.08L1421.47 520.89" stroke="rgba(45, 52, 54, 1)" stroke-width="1.5"></path><path d="M1421.47 520.89L1421.47 520.89" stroke="rgba(45, 52, 54, 1)" stroke-width="1.5"></path><path d="M1421.47 520.89L1415.93 672.9" stroke="rgba(45, 52, 54, 1)" stroke-width="1.5"></path><path d="M1415.93 672.9L1415.93 672.9" stroke="rgba(45, 52, 54, 1)" stroke-width="1.5"></path><circle r="5" cx="-47.37" cy="557.84" fill="rgba(45, 52, 54, 1)"></circle><circle r="5" cx="-42.91" cy="692.57" fill="rgba(45, 52, 54, 1)"></circle><circle r="5" cx="102.58" cy="369.51" fill="rgba(45, 52, 54, 1)"></circle><circle r="5" cx="73.4" cy="555.82" fill="rgba(45, 52, 54, 1)"></circle><circle r="5" cx="65.82" cy="650.75" fill="rgba(45, 52, 54, 1)"></circle><circle r="5" cx="197.14" cy="400.24" fill="rgba(45, 52, 54, 1)"></circle><circle r="5" cx="261.8" cy="519.91" fill="rgba(45, 52, 54, 1)"></circle><circle r="5" cx="208" cy="705.54" fill="rgba(45, 52, 54, 1)"></circle><circle r="5" cx="369.56" cy="338.79" fill="rgba(45, 52, 54, 1)"></circle><circle r="5" cx="393.19" cy="509.72" fill="rgba(45, 52, 54, 1)"></circle><circle r="5" cx="344.13" cy="699.62" fill="rgba(45, 52, 54, 1)"></circle><circle r="5" cx="558.96" cy="252.86" fill="rgba(45, 52, 54, 1)"></circle><circle r="5" cx="511.08" cy="384.28" fill="rgba(45, 52, 54, 1)"></circle><circle r="5" cx="505.37" cy="533.14" fill="rgba(45, 52, 54, 1)"></circle><circle r="5" cx="560.38" cy="712.43" fill="rgba(45, 52, 54, 1)"></circle><circle r="5" cx="696.46" cy="193.65" fill="rgba(45, 52, 54, 1)"></circle><circle r="5" cx="691.91" cy="393.88" fill="rgba(45, 52, 54, 1)"></circle><circle r="5" cx="638.69" cy="501.78" fill="rgba(45, 52, 54, 1)"></circle><circle r="5" cx="695.31" cy="691.34" fill="rgba(45, 52, 54, 1)"></circle><circle r="5" cx="796.75" cy="-44.41" fill="rgba(45, 52, 54, 1)"></circle><circle r="5" cx="801.74" cy="58.3" fill="rgba(45, 52, 54, 1)"></circle><circle r="5" cx="820.22" cy="213.47" fill="rgba(45, 52, 54, 1)"></circle><circle r="5" cx="844.86" cy="399.24" fill="rgba(45, 52, 54, 1)"></circle><circle r="5" cx="795.55" cy="544.15" fill="rgba(45, 52, 54, 1)"></circle><circle r="5" cx="831.2" cy="686.3" fill="rgba(45, 52, 54, 1)"></circle><circle r="5" cx="1010.22" cy="-97.76" fill="rgba(45, 52, 54, 1)"></circle><circle r="5" cx="984.29" cy="59.4" fill="rgba(45, 52, 54, 1)"></circle><circle r="5" cx="986.56" cy="229.82" fill="rgba(45, 52, 54, 1)"></circle><circle r="5" cx="944.65" cy="383.23" fill="rgba(45, 52, 54, 1)"></circle><circle r="5" cx="994.29" cy="559.84" fill="rgba(45, 52, 54, 1)"></circle><circle r="5" cx="965.82" cy="686.46" fill="rgba(45, 52, 54, 1)"></circle><circle r="5" cx="1114.14" cy="-98.05" fill="rgba(45, 52, 54, 1)"></circle><circle r="5" cx="1144.85" cy="79.46" fill="rgba(45, 52, 54, 1)"></circle><circle r="5" cx="1094.42" cy="339.06" fill="rgba(45, 52, 54, 1)"></circle><circle r="5" cx="1148.37" cy="536.41" fill="rgba(45, 52, 54, 1)"></circle><circle r="5" cx="1130.76" cy="673.48" fill="rgba(45, 52, 54, 1)"></circle><circle r="5" cx="1255.26" cy="-96.57" fill="rgba(45, 52, 54, 1)"></circle><circle r="5" cx="1264.88" cy="81.69" fill="rgba(45, 52, 54, 1)"></circle><circle r="5" cx="1312.34" cy="190.19" fill="rgba(45, 52, 54, 1)"></circle><circle r="5" cx="1263.3" cy="373.36" fill="rgba(45, 52, 54, 1)"></circle><circle r="5" cx="1287.74" cy="525.72" fill="rgba(45, 52, 54, 1)"></circle><circle r="5" cx="1297.82" cy="712.13" fill="rgba(45, 52, 54, 1)"></circle><circle r="5" cx="1411.33" cy="-42.85" fill="rgba(45, 52, 54, 1)"></circle><circle r="5" cx="1427.13" cy="58.71" fill="rgba(45, 52, 54, 1)"></circle><circle r="5" cx="1461.13" cy="394.08" fill="rgba(45, 52, 54, 1)"></circle><circle r="5" cx="1421.47" cy="520.89" fill="rgba(45, 52, 54, 1)"></circle><circle r="5" cx="1415.93" cy="672.9" fill="rgba(45, 52, 54, 1)"></circle><path d="M203.1 694.79L203.1 694.79" stroke="hsl(243.5, 100%, 90.2%)" stroke-width="1.5"></path><path d="M203.1 694.79L77.18 651.98" stroke="hsl(243.5, 100%, 90.2%)" stroke-width="1.5"></path><path d="M203.1 694.79L195.54 554.65" stroke="hsl(243.5, 100%, 90.2%)" stroke-width="1.5"></path><path d="M550.01 666.63L550.01 666.63" stroke="hsl(243.5, 100%, 90.2%)" stroke-width="1.5"></path><path d="M550.01 666.63L651.5 677.74" stroke="hsl(243.5, 100%, 90.2%)" stroke-width="1.5"></path><path d="M550.01 666.63L399.13 653.9" stroke="hsl(243.5, 100%, 90.2%)" stroke-width="1.5"></path><path d="M550.01 666.63L671.08 516.64" stroke="hsl(243.5, 100%, 90.2%)" stroke-width="1.5"></path><path d="M550.01 666.63L353.75 532.9" stroke="hsl(243.5, 100%, 90.2%)" stroke-width="1.5"></path><path d="M550.01 666.63L793.11 639.23" stroke="hsl(243.5, 100%, 90.2%)" stroke-width="1.5"></path><path d="M1006.95 -81.9L1006.95 -81.9" stroke="hsl(243.5, 100%, 90.2%)" stroke-width="1.5"></path><path d="M1006.95 -81.9L1123.42 -45.13" stroke="hsl(243.5, 100%, 90.2%)" stroke-width="1.5"></path><path d="M987.5 56.76L987.5 56.76" stroke="hsl(243.5, 100%, 90.2%)" stroke-width="1.5"></path><path d="M987.5 56.76L1006.95 -81.9" stroke="hsl(243.5, 100%, 90.2%)" stroke-width="1.5"></path><path d="M987.5 56.76L1123.42 -45.13" stroke="hsl(243.5, 100%, 90.2%)" stroke-width="1.5"></path><path d="M987.5 56.76L966.94 234.41" stroke="hsl(243.5, 100%, 90.2%)" stroke-width="1.5"></path><path d="M987.5 56.76L1160.67 101.98" stroke="hsl(243.5, 100%, 90.2%)" stroke-width="1.5"></path><path d="M966.94 234.41L966.94 234.41" stroke="hsl(243.5, 100%, 90.2%)" stroke-width="1.5"></path><path d="M966.94 234.41L1091.37 230.32" stroke="hsl(243.5, 100%, 90.2%)" stroke-width="1.5"></path><path d="M966.94 234.41L998.61 387.35" stroke="hsl(243.5, 100%, 90.2%)" stroke-width="1.5"></path><path d="M998.61 387.35L998.61 387.35" stroke="hsl(243.5, 100%, 90.2%)" stroke-width="1.5"></path><path d="M998.61 387.35L1087.99 395.86" stroke="hsl(243.5, 100%, 90.2%)" stroke-width="1.5"></path><path d="M998.61 387.35L1006.14 555.76" stroke="hsl(243.5, 100%, 90.2%)" stroke-width="1.5"></path><path d="M1237.67 550.05L1237.67 550.05" stroke="hsl(243.5, 100%, 90.2%)" stroke-width="1.5"></path><path d="M1237.67 550.05L1121.18 524.56" stroke="hsl(243.5, 100%, 90.2%)" stroke-width="1.5"></path><path d="M1237.67 550.05L1401.51 541.74" stroke="hsl(243.5, 100%, 90.2%)" stroke-width="1.5"></path><path d="M1237.67 550.05L1131.88 701.49" stroke="hsl(243.5, 100%, 90.2%)" stroke-width="1.5"></path><path d="M1237.67 550.05L1266.18 355.53" stroke="hsl(243.5, 100%, 90.2%)" stroke-width="1.5"></path><path d="M1237.67 550.05L1418.72 639.37" stroke="hsl(243.5, 100%, 90.2%)" stroke-width="1.5"></path><path d="M-111.6 507.91L-111.6 507.91" stroke="hsl(243.5, 100%, 90.2%)" stroke-width="1.5"></path><path d="M-111.6 507.91L-106.94 664.34" stroke="hsl(243.5, 100%, 90.2%)" stroke-width="1.5"></path><path d="M-111.6 507.91L87.65 517.2" stroke="hsl(243.5, 100%, 90.2%)" stroke-width="1.5"></path><path d="M-111.6 507.91L77.18 651.98" stroke="hsl(243.5, 100%, 90.2%)" stroke-width="1.5"></path><path d="M-111.6 507.91L109.89 385.39" stroke="hsl(243.5, 100%, 90.2%)" stroke-width="1.5"></path><path d="M-111.6 507.91L195.54 554.65" stroke="hsl(243.5, 100%, 90.2%)" stroke-width="1.5"></path><path d="M-111.6 507.91L203.1 694.79" stroke="hsl(243.5, 100%, 90.2%)" stroke-width="1.5"></path><path d="M-106.94 664.34L-106.94 664.34" stroke="hsl(243.5, 100%, 90.2%)" stroke-width="1.5"></path><path d="M-106.94 664.34L77.18 651.98" stroke="hsl(243.5, 100%, 90.2%)" stroke-width="1.5"></path><path d="M-106.94 664.34L87.65 517.2" stroke="hsl(243.5, 100%, 90.2%)" stroke-width="1.5"></path><path d="M-106.94 664.34L203.1 694.79" stroke="hsl(243.5, 100%, 90.2%)" stroke-width="1.5"></path><path d="M-106.94 664.34L195.54 554.65" stroke="hsl(243.5, 100%, 90.2%)" stroke-width="1.5"></path><path d="M-106.94 664.34L109.89 385.39" stroke="hsl(243.5, 100%, 90.2%)" stroke-width="1.5"></path><path d="M109.89 385.39L109.89 385.39" stroke="hsl(243.5, 100%, 90.2%)" stroke-width="1.5"></path><path d="M109.89 385.39L87.65 517.2" stroke="hsl(243.5, 100%, 90.2%)" stroke-width="1.5"></path><path d="M109.89 385.39L195.54 554.65" stroke="hsl(243.5, 100%, 90.2%)" stroke-width="1.5"></path><path d="M87.65 517.2L87.65 517.2" stroke="hsl(243.5, 100%, 90.2%)" stroke-width="1.5"></path><path d="M87.65 517.2L195.54 554.65" stroke="hsl(243.5, 100%, 90.2%)" stroke-width="1.5"></path><path d="M87.65 517.2L77.18 651.98" stroke="hsl(243.5, 100%, 90.2%)" stroke-width="1.5"></path><path d="M87.65 517.2L203.1 694.79" stroke="hsl(243.5, 100%, 90.2%)" stroke-width="1.5"></path><path d="M77.18 651.98L77.18 651.98" stroke="hsl(243.5, 100%, 90.2%)" stroke-width="1.5"></path><path d="M77.18 651.98L195.54 554.65" stroke="hsl(243.5, 100%, 90.2%)" stroke-width="1.5"></path><path d="M195.54 554.65L195.54 554.65" stroke="hsl(243.5, 100%, 90.2%)" stroke-width="1.5"></path><path d="M195.54 554.65L353.75 532.9" stroke="hsl(243.5, 100%, 90.2%)" stroke-width="1.5"></path><path d="M195.54 554.65L399.13 653.9" stroke="hsl(243.5, 100%, 90.2%)" stroke-width="1.5"></path><path d="M373.91 368.04L373.91 368.04" stroke="hsl(243.5, 100%, 90.2%)" stroke-width="1.5"></path><path d="M373.91 368.04L498.1 358.32" stroke="hsl(243.5, 100%, 90.2%)" stroke-width="1.5"></path><path d="M373.91 368.04L353.75 532.9" stroke="hsl(243.5, 100%, 90.2%)" stroke-width="1.5"></path><path d="M373.91 368.04L195.54 554.65" stroke="hsl(243.5, 100%, 90.2%)" stroke-width="1.5"></path><path d="M353.75 532.9L353.75 532.9" stroke="hsl(243.5, 100%, 90.2%)" stroke-width="1.5"></path><path d="M353.75 532.9L399.13 653.9" stroke="hsl(243.5, 100%, 90.2%)" stroke-width="1.5"></path><path d="M353.75 532.9L203.1 694.79" stroke="hsl(243.5, 100%, 90.2%)" stroke-width="1.5"></path><path d="M399.13 653.9L399.13 653.9" stroke="hsl(243.5, 100%, 90.2%)" stroke-width="1.5"></path><path d="M498.1 358.32L498.1 358.32" stroke="hsl(243.5, 100%, 90.2%)" stroke-width="1.5"></path><path d="M498.1 358.32L662.17 344.17" stroke="hsl(243.5, 100%, 90.2%)" stroke-width="1.5"></path><path d="M498.1 358.32L353.75 532.9" stroke="hsl(243.5, 100%, 90.2%)" stroke-width="1.5"></path><path d="M498.1 358.32L671.08 516.64" stroke="hsl(243.5, 100%, 90.2%)" stroke-width="1.5"></path><path d="M662.17 344.17L662.17 344.17" stroke="hsl(243.5, 100%, 90.2%)" stroke-width="1.5"></path><path d="M662.17 344.17L823.81 391.79" stroke="hsl(243.5, 100%, 90.2%)" stroke-width="1.5"></path><path d="M662.17 344.17L671.08 516.64" stroke="hsl(243.5, 100%, 90.2%)" stroke-width="1.5"></path><path d="M662.17 344.17L796.94 541.93" stroke="hsl(243.5, 100%, 90.2%)" stroke-width="1.5"></path><path d="M662.17 344.17L373.91 368.04" stroke="hsl(243.5, 100%, 90.2%)" stroke-width="1.5"></path><path d="M662.17 344.17L793.11 639.23" stroke="hsl(243.5, 100%, 90.2%)" stroke-width="1.5"></path><path d="M671.08 516.64L671.08 516.64" stroke="hsl(243.5, 100%, 90.2%)" stroke-width="1.5"></path><path d="M671.08 516.64L796.94 541.93" stroke="hsl(243.5, 100%, 90.2%)" stroke-width="1.5"></path><path d="M671.08 516.64L651.5 677.74" stroke="hsl(243.5, 100%, 90.2%)" stroke-width="1.5"></path><path d="M671.08 516.64L793.11 639.23" stroke="hsl(243.5, 100%, 90.2%)" stroke-width="1.5"></path><path d="M671.08 516.64L823.81 391.79" stroke="hsl(243.5, 100%, 90.2%)" stroke-width="1.5"></path><path d="M651.5 677.74L651.5 677.74" stroke="hsl(243.5, 100%, 90.2%)" stroke-width="1.5"></path><path d="M651.5 677.74L793.11 639.23" stroke="hsl(243.5, 100%, 90.2%)" stroke-width="1.5"></path><path d="M823.81 391.79L823.81 391.79" stroke="hsl(243.5, 100%, 90.2%)" stroke-width="1.5"></path><path d="M823.81 391.79L796.94 541.93" stroke="hsl(243.5, 100%, 90.2%)" stroke-width="1.5"></path><path d="M796.94 541.93L796.94 541.93" stroke="hsl(243.5, 100%, 90.2%)" stroke-width="1.5"></path><path d="M796.94 541.93L793.11 639.23" stroke="hsl(243.5, 100%, 90.2%)" stroke-width="1.5"></path><path d="M793.11 639.23L793.11 639.23" stroke="hsl(243.5, 100%, 90.2%)" stroke-width="1.5"></path><path d="M793.11 639.23L996.84 690.16" stroke="hsl(243.5, 100%, 90.2%)" stroke-width="1.5"></path><path d="M793.11 639.23L1006.14 555.76" stroke="hsl(243.5, 100%, 90.2%)" stroke-width="1.5"></path><path d="M1006.14 555.76L1006.14 555.76" stroke="hsl(243.5, 100%, 90.2%)" stroke-width="1.5"></path><path d="M1006.14 555.76L1121.18 524.56" stroke="hsl(243.5, 100%, 90.2%)" stroke-width="1.5"></path><path d="M1006.14 555.76L996.84 690.16" stroke="hsl(243.5, 100%, 90.2%)" stroke-width="1.5"></path><path d="M1006.14 555.76L1087.99 395.86" stroke="hsl(243.5, 100%, 90.2%)" stroke-width="1.5"></path><path d="M996.84 690.16L996.84 690.16" stroke="hsl(243.5, 100%, 90.2%)" stroke-width="1.5"></path><path d="M996.84 690.16L1131.88 701.49" stroke="hsl(243.5, 100%, 90.2%)" stroke-width="1.5"></path><path d="M996.84 690.16L1121.18 524.56" stroke="hsl(243.5, 100%, 90.2%)" stroke-width="1.5"></path><path d="M996.84 690.16L796.94 541.93" stroke="hsl(243.5, 100%, 90.2%)" stroke-width="1.5"></path><path d="M1123.42 -45.13L1123.42 -45.13" stroke="hsl(243.5, 100%, 90.2%)" stroke-width="1.5"></path><path d="M1123.42 -45.13L1160.67 101.98" stroke="hsl(243.5, 100%, 90.2%)" stroke-width="1.5"></path><path d="M1123.42 -45.13L1274.28 -64.7" stroke="hsl(243.5, 100%, 90.2%)" stroke-width="1.5"></path><path d="M1123.42 -45.13L1242.34 55.82" stroke="hsl(243.5, 100%, 90.2%)" stroke-width="1.5"></path><path d="M1123.42 -45.13L1091.37 230.32" stroke="hsl(243.5, 100%, 90.2%)" stroke-width="1.5"></path><path d="M1160.67 101.98L1160.67 101.98" stroke="hsl(243.5, 100%, 90.2%)" stroke-width="1.5"></path><path d="M1160.67 101.98L1242.34 55.82" stroke="hsl(243.5, 100%, 90.2%)" stroke-width="1.5"></path><path d="M1160.67 101.98L1091.37 230.32" stroke="hsl(243.5, 100%, 90.2%)" stroke-width="1.5"></path><path d="M1160.67 101.98L1274.28 -64.7" stroke="hsl(243.5, 100%, 90.2%)" stroke-width="1.5"></path><path d="M1160.67 101.98L966.94 234.41" stroke="hsl(243.5, 100%, 90.2%)" stroke-width="1.5"></path><path d="M1091.37 230.32L1091.37 230.32" stroke="hsl(243.5, 100%, 90.2%)" stroke-width="1.5"></path><path d="M1087.99 395.86L1087.99 395.86" stroke="hsl(243.5, 100%, 90.2%)" stroke-width="1.5"></path><path d="M1087.99 395.86L1121.18 524.56" stroke="hsl(243.5, 100%, 90.2%)" stroke-width="1.5"></path><path d="M1121.18 524.56L1121.18 524.56" stroke="hsl(243.5, 100%, 90.2%)" stroke-width="1.5"></path><path d="M1121.18 524.56L1131.88 701.49" stroke="hsl(243.5, 100%, 90.2%)" stroke-width="1.5"></path><path d="M1121.18 524.56L998.61 387.35" stroke="hsl(243.5, 100%, 90.2%)" stroke-width="1.5"></path><path d="M1131.88 701.49L1131.88 701.49" stroke="hsl(243.5, 100%, 90.2%)" stroke-width="1.5"></path><path d="M1131.88 701.49L1006.14 555.76" stroke="hsl(243.5, 100%, 90.2%)" stroke-width="1.5"></path><path d="M1274.28 -64.7L1274.28 -64.7" stroke="hsl(243.5, 100%, 90.2%)" stroke-width="1.5"></path><path d="M1274.28 -64.7L1242.34 55.82" stroke="hsl(243.5, 100%, 90.2%)" stroke-width="1.5"></path><path d="M1274.28 -64.7L1455.96 -43.3" stroke="hsl(243.5, 100%, 90.2%)" stroke-width="1.5"></path><path d="M1242.34 55.82L1242.34 55.82" stroke="hsl(243.5, 100%, 90.2%)" stroke-width="1.5"></path><path d="M1242.34 55.82L1091.37 230.32" stroke="hsl(243.5, 100%, 90.2%)" stroke-width="1.5"></path><path d="M1242.34 55.82L1455.96 -43.3" stroke="hsl(243.5, 100%, 90.2%)" stroke-width="1.5"></path><path d="M1242.34 55.82L1402.39 232.21" stroke="hsl(243.5, 100%, 90.2%)" stroke-width="1.5"></path><path d="M1266.18 355.53L1266.18 355.53" stroke="hsl(243.5, 100%, 90.2%)" stroke-width="1.5"></path><path d="M1266.18 355.53L1437.21 392.47" stroke="hsl(243.5, 100%, 90.2%)" stroke-width="1.5"></path><path d="M1266.18 355.53L1087.99 395.86" stroke="hsl(243.5, 100%, 90.2%)" stroke-width="1.5"></path><path d="M1266.18 355.53L1402.39 232.21" stroke="hsl(243.5, 100%, 90.2%)" stroke-width="1.5"></path><path d="M1455.96 -43.3L1455.96 -43.3" stroke="hsl(243.5, 100%, 90.2%)" stroke-width="1.5"></path><path d="M1455.96 -43.3L1402.39 232.21" stroke="hsl(243.5, 100%, 90.2%)" stroke-width="1.5"></path><path d="M1455.96 -43.3L1160.67 101.98" stroke="hsl(243.5, 100%, 90.2%)" stroke-width="1.5"></path><path d="M1402.39 232.21L1402.39 232.21" stroke="hsl(243.5, 100%, 90.2%)" stroke-width="1.5"></path><path d="M1402.39 232.21L1437.21 392.47" stroke="hsl(243.5, 100%, 90.2%)" stroke-width="1.5"></path><path d="M1437.21 392.47L1437.21 392.47" stroke="hsl(243.5, 100%, 90.2%)" stroke-width="1.5"></path><path d="M1437.21 392.47L1401.51 541.74" stroke="hsl(243.5, 100%, 90.2%)" stroke-width="1.5"></path><path d="M1437.21 392.47L1418.72 639.37" stroke="hsl(243.5, 100%, 90.2%)" stroke-width="1.5"></path><path d="M1437.21 392.47L1237.67 550.05" stroke="hsl(243.5, 100%, 90.2%)" stroke-width="1.5"></path><path d="M1401.51 541.74L1401.51 541.74" stroke="hsl(243.5, 100%, 90.2%)" stroke-width="1.5"></path><path d="M1401.51 541.74L1418.72 639.37" stroke="hsl(243.5, 100%, 90.2%)" stroke-width="1.5"></path><path d="M1401.51 541.74L1266.18 355.53" stroke="hsl(243.5, 100%, 90.2%)" stroke-width="1.5"></path><path d="M1418.72 639.37L1418.72 639.37" stroke="hsl(243.5, 100%, 90.2%)" stroke-width="1.5"></path><circle r="25" cx="203.1" cy="694.79" fill="url(#SvgjsRadialGradient1155)"></circle><circle r="25" cx="550.01" cy="666.63" fill="url(#SvgjsRadialGradient1155)"></circle><circle r="25" cx="1006.95" cy="-81.9" fill="url(#SvgjsRadialGradient1155)"></circle><circle r="25" cx="987.5" cy="56.76" fill="url(#SvgjsRadialGradient1155)"></circle><circle r="25" cx="966.94" cy="234.41" fill="url(#SvgjsRadialGradient1155)"></circle><circle r="25" cx="998.61" cy="387.35" fill="url(#SvgjsRadialGradient1155)"></circle><circle r="25" cx="1237.67" cy="550.05" fill="url(#SvgjsRadialGradient1155)"></circle><circle r="5" cx="-111.6" cy="507.91" fill="#b6b1ff"></circle><circle r="5" cx="-106.94" cy="664.34" fill="#b6b1ff"></circle><circle r="5" cx="109.89" cy="385.39" fill="#b6b1ff"></circle><circle r="5" cx="87.65" cy="517.2" fill="#b6b1ff"></circle><circle r="5" cx="77.18" cy="651.98" fill="#b6b1ff"></circle><circle r="5" cx="195.54" cy="554.65" fill="#b6b1ff"></circle><circle r="5" cx="373.91" cy="368.04" fill="#b6b1ff"></circle><circle r="5" cx="353.75" cy="532.9" fill="#b6b1ff"></circle><circle r="5" cx="399.13" cy="653.9" fill="#b6b1ff"></circle><circle r="5" cx="498.1" cy="358.32" fill="#b6b1ff"></circle><circle r="5" cx="662.17" cy="344.17" fill="#b6b1ff"></circle><circle r="5" cx="671.08" cy="516.64" fill="#b6b1ff"></circle><circle r="5" cx="651.5" cy="677.74" fill="#b6b1ff"></circle><circle r="5" cx="823.81" cy="391.79" fill="#b6b1ff"></circle><circle r="5" cx="796.94" cy="541.93" fill="#b6b1ff"></circle><circle r="5" cx="793.11" cy="639.23" fill="#b6b1ff"></circle><circle r="5" cx="1006.14" cy="555.76" fill="#b6b1ff"></circle><circle r="5" cx="996.84" cy="690.16" fill="#b6b1ff"></circle><circle r="5" cx="1123.42" cy="-45.13" fill="#b6b1ff"></circle><circle r="5" cx="1160.67" cy="101.98" fill="#b6b1ff"></circle><circle r="5" cx="1091.37" cy="230.32" fill="#b6b1ff"></circle><circle r="5" cx="1087.99" cy="395.86" fill="#b6b1ff"></circle><circle r="5" cx="1121.18" cy="524.56" fill="#b6b1ff"></circle><circle r="5" cx="1131.88" cy="701.49" fill="#b6b1ff"></circle><circle r="5" cx="1274.28" cy="-64.7" fill="#b6b1ff"></circle><circle r="5" cx="1242.34" cy="55.82" fill="#b6b1ff"></circle><circle r="5" cx="1266.18" cy="355.53" fill="#b6b1ff"></circle><circle r="5" cx="1455.96" cy="-43.3" fill="#b6b1ff"></circle><circle r="5" cx="1402.39" cy="232.21" fill="#b6b1ff"></circle><circle r="5" cx="1437.21" cy="392.47" fill="#b6b1ff"></circle><circle r="5" cx="1401.51" cy="541.74" fill="#b6b1ff"></circle><circle r="5" cx="1418.72" cy="639.37" fill="#b6b1ff"></circle></g><defs><mask id="SvgjsMask1154"><rect width="1220" height="480" fill="#ffffff"></rect></mask><radialGradient id="SvgjsRadialGradient1155"><stop stop-color="#ffffff" offset="0.1"></stop><stop stop-color="rgba(108, 99, 255, 1)" offset="0.2"></stop><stop stop-color="rgba(108, 99, 255, 0)" offset="1"></stop></radialGradient></defs></svg>