<svg xmlns="http://www.w3.org/2000/svg" version="1.1" xmlns:xlink="http://www.w3.org/1999/xlink" xmlns:svgjs="http://svgjs.com/svgjs" width="1440" height="560" preserveAspectRatio="none" viewBox="0 0 1440 560"><g mask="url(&quot;#SvgjsMask1128&quot;)" fill="none"><path d="M-59.65 342.52L-59.65 342.52" stroke="rgba(45, 52, 54, 1)" stroke-width="1.5"></path><path d="M-59.65 342.52L62.5 404.35" stroke="rgba(45, 52, 54, 1)" stroke-width="1.5"></path><path d="M-59.65 342.52L-84.5 558.74" stroke="rgba(45, 52, 54, 1)" stroke-width="1.5"></path><path d="M-59.65 342.52L207.61 394.02" stroke="rgba(45, 52, 54, 1)" stroke-width="1.5"></path><path d="M-59.65 342.52L38.8 650.96" stroke="rgba(45, 52, 54, 1)" stroke-width="1.5"></path><path d="M-59.65 342.52L226.53 539.21" stroke="rgba(45, 52, 54, 1)" stroke-width="1.5"></path><path d="M-59.65 342.52L-46.03 695.95" stroke="rgba(45, 52, 54, 1)" stroke-width="1.5"></path><path d="M-84.5 558.74L-84.5 558.74" stroke="rgba(45, 52, 54, 1)" stroke-width="1.5"></path><path d="M-84.5 558.74L-46.03 695.95" stroke="rgba(45, 52, 54, 1)" stroke-width="1.5"></path><path d="M-84.5 558.74L38.8 650.96" stroke="rgba(45, 52, 54, 1)" stroke-width="1.5"></path><path d="M-84.5 558.74L62.5 404.35" stroke="rgba(45, 52, 54, 1)" stroke-width="1.5"></path><path d="M-84.5 558.74L226.53 539.21" stroke="rgba(45, 52, 54, 1)" stroke-width="1.5"></path><path d="M-46.03 695.95L-46.03 695.95" stroke="rgba(45, 52, 54, 1)" stroke-width="1.5"></path><path d="M-46.03 695.95L38.8 650.96" stroke="rgba(45, 52, 54, 1)" stroke-width="1.5"></path><path d="M62.5 404.35L62.5 404.35" stroke="rgba(45, 52, 54, 1)" stroke-width="1.5"></path><path d="M38.8 650.96L38.8 650.96" stroke="rgba(45, 52, 54, 1)" stroke-width="1.5"></path><path d="M38.8 650.96L212.46 680.86" stroke="rgba(45, 52, 54, 1)" stroke-width="1.5"></path><path d="M207.61 394.02L207.61 394.02" stroke="rgba(45, 52, 54, 1)" stroke-width="1.5"></path><path d="M207.61 394.02L62.5 404.35" stroke="rgba(45, 52, 54, 1)" stroke-width="1.5"></path><path d="M207.61 394.02L226.53 539.21" stroke="rgba(45, 52, 54, 1)" stroke-width="1.5"></path><path d="M207.61 394.02L398.69 381.13" stroke="rgba(45, 52, 54, 1)" stroke-width="1.5"></path><path d="M207.61 394.02L381.63 498.1" stroke="rgba(45, 52, 54, 1)" stroke-width="1.5"></path><path d="M207.61 394.02L212.46 680.86" stroke="rgba(45, 52, 54, 1)" stroke-width="1.5"></path><path d="M226.53 539.21L226.53 539.21" stroke="rgba(45, 52, 54, 1)" stroke-width="1.5"></path><path d="M226.53 539.21L212.46 680.86" stroke="rgba(45, 52, 54, 1)" stroke-width="1.5"></path><path d="M226.53 539.21L381.63 498.1" stroke="rgba(45, 52, 54, 1)" stroke-width="1.5"></path><path d="M226.53 539.21L62.5 404.35" stroke="rgba(45, 52, 54, 1)" stroke-width="1.5"></path><path d="M226.53 539.21L38.8 650.96" stroke="rgba(45, 52, 54, 1)" stroke-width="1.5"></path><path d="M212.46 680.86L212.46 680.86" stroke="rgba(45, 52, 54, 1)" stroke-width="1.5"></path><path d="M212.46 680.86L386.39 709.14" stroke="rgba(45, 52, 54, 1)" stroke-width="1.5"></path><path d="M398.69 381.13L398.69 381.13" stroke="rgba(45, 52, 54, 1)" stroke-width="1.5"></path><path d="M398.69 381.13L381.63 498.1" stroke="rgba(45, 52, 54, 1)" stroke-width="1.5"></path><path d="M398.69 381.13L495.46 510.11" stroke="rgba(45, 52, 54, 1)" stroke-width="1.5"></path><path d="M398.69 381.13L226.53 539.21" stroke="rgba(45, 52, 54, 1)" stroke-width="1.5"></path><path d="M398.69 381.13L665.32 224.28" stroke="rgba(45, 52, 54, 1)" stroke-width="1.5"></path><path d="M398.69 381.13L386.39 709.14" stroke="rgba(45, 52, 54, 1)" stroke-width="1.5"></path><path d="M381.63 498.1L381.63 498.1" stroke="rgba(45, 52, 54, 1)" stroke-width="1.5"></path><path d="M381.63 498.1L495.46 510.11" stroke="rgba(45, 52, 54, 1)" stroke-width="1.5"></path><path d="M386.39 709.14L386.39 709.14" stroke="rgba(45, 52, 54, 1)" stroke-width="1.5"></path><path d="M386.39 709.14L381.63 498.1" stroke="rgba(45, 52, 54, 1)" stroke-width="1.5"></path><path d="M386.39 709.14L495.46 510.11" stroke="rgba(45, 52, 54, 1)" stroke-width="1.5"></path><path d="M386.39 709.14L226.53 539.21" stroke="rgba(45, 52, 54, 1)" stroke-width="1.5"></path><path d="M495.46 510.11L495.46 510.11" stroke="rgba(45, 52, 54, 1)" stroke-width="1.5"></path><path d="M495.46 510.11L706.64 551.18" stroke="rgba(45, 52, 54, 1)" stroke-width="1.5"></path><path d="M495.46 510.11L679.46 677.12" stroke="rgba(45, 52, 54, 1)" stroke-width="1.5"></path><path d="M495.46 510.11L226.53 539.21" stroke="rgba(45, 52, 54, 1)" stroke-width="1.5"></path><path d="M665.32 224.28L665.32 224.28" stroke="rgba(45, 52, 54, 1)" stroke-width="1.5"></path><path d="M665.32 224.28L787.8 191.37" stroke="rgba(45, 52, 54, 1)" stroke-width="1.5"></path><path d="M665.32 224.28L817.4 411.34" stroke="rgba(45, 52, 54, 1)" stroke-width="1.5"></path><path d="M706.64 551.18L706.64 551.18" stroke="rgba(45, 52, 54, 1)" stroke-width="1.5"></path><path d="M706.64 551.18L833.3 547.21" stroke="rgba(45, 52, 54, 1)" stroke-width="1.5"></path><path d="M706.64 551.18L679.46 677.12" stroke="rgba(45, 52, 54, 1)" stroke-width="1.5"></path><path d="M706.64 551.18L817.28 653.83" stroke="rgba(45, 52, 54, 1)" stroke-width="1.5"></path><path d="M679.46 677.12L679.46 677.12" stroke="rgba(45, 52, 54, 1)" stroke-width="1.5"></path><path d="M679.46 677.12L817.28 653.83" stroke="rgba(45, 52, 54, 1)" stroke-width="1.5"></path><path d="M679.46 677.12L833.3 547.21" stroke="rgba(45, 52, 54, 1)" stroke-width="1.5"></path><path d="M679.46 677.12L386.39 709.14" stroke="rgba(45, 52, 54, 1)" stroke-width="1.5"></path><path d="M679.46 677.12L947.48 544.95" stroke="rgba(45, 52, 54, 1)" stroke-width="1.5"></path><path d="M787.8 191.37L787.8 191.37" stroke="rgba(45, 52, 54, 1)" stroke-width="1.5"></path><path d="M787.8 191.37L950.08 230.68" stroke="rgba(45, 52, 54, 1)" stroke-width="1.5"></path><path d="M787.8 191.37L940.75 91.94" stroke="rgba(45, 52, 54, 1)" stroke-width="1.5"></path><path d="M787.8 191.37L817.4 411.34" stroke="rgba(45, 52, 54, 1)" stroke-width="1.5"></path><path d="M787.8 191.37L980.01 360.58" stroke="rgba(45, 52, 54, 1)" stroke-width="1.5"></path><path d="M817.4 411.34L817.4 411.34" stroke="rgba(45, 52, 54, 1)" stroke-width="1.5"></path><path d="M817.4 411.34L833.3 547.21" stroke="rgba(45, 52, 54, 1)" stroke-width="1.5"></path><path d="M817.4 411.34L980.01 360.58" stroke="rgba(45, 52, 54, 1)" stroke-width="1.5"></path><path d="M817.4 411.34L706.64 551.18" stroke="rgba(45, 52, 54, 1)" stroke-width="1.5"></path><path d="M817.4 411.34L947.48 544.95" stroke="rgba(45, 52, 54, 1)" stroke-width="1.5"></path><path d="M817.4 411.34L950.08 230.68" stroke="rgba(45, 52, 54, 1)" stroke-width="1.5"></path><path d="M833.3 547.21L833.3 547.21" stroke="rgba(45, 52, 54, 1)" stroke-width="1.5"></path><path d="M833.3 547.21L817.28 653.83" stroke="rgba(45, 52, 54, 1)" stroke-width="1.5"></path><path d="M833.3 547.21L947.48 544.95" stroke="rgba(45, 52, 54, 1)" stroke-width="1.5"></path><path d="M817.28 653.83L817.28 653.83" stroke="rgba(45, 52, 54, 1)" stroke-width="1.5"></path><path d="M817.28 653.83L980.96 641.94" stroke="rgba(45, 52, 54, 1)" stroke-width="1.5"></path><path d="M817.28 653.83L947.48 544.95" stroke="rgba(45, 52, 54, 1)" stroke-width="1.5"></path><path d="M817.28 653.83L817.4 411.34" stroke="rgba(45, 52, 54, 1)" stroke-width="1.5"></path><path d="M981.02 -60.62L981.02 -60.62" stroke="rgba(45, 52, 54, 1)" stroke-width="1.5"></path><path d="M981.02 -60.62L1122.92 -65.82" stroke="rgba(45, 52, 54, 1)" stroke-width="1.5"></path><path d="M981.02 -60.62L940.75 91.94" stroke="rgba(45, 52, 54, 1)" stroke-width="1.5"></path><path d="M940.75 91.94L940.75 91.94" stroke="rgba(45, 52, 54, 1)" stroke-width="1.5"></path><path d="M940.75 91.94L950.08 230.68" stroke="rgba(45, 52, 54, 1)" stroke-width="1.5"></path><path d="M940.75 91.94L1118.38 70.01" stroke="rgba(45, 52, 54, 1)" stroke-width="1.5"></path><path d="M940.75 91.94L1106.8 208.32" stroke="rgba(45, 52, 54, 1)" stroke-width="1.5"></path><path d="M940.75 91.94L1122.92 -65.82" stroke="rgba(45, 52, 54, 1)" stroke-width="1.5"></path><path d="M950.08 230.68L950.08 230.68" stroke="rgba(45, 52, 54, 1)" stroke-width="1.5"></path><path d="M950.08 230.68L980.01 360.58" stroke="rgba(45, 52, 54, 1)" stroke-width="1.5"></path><path d="M950.08 230.68L1106.8 208.32" stroke="rgba(45, 52, 54, 1)" stroke-width="1.5"></path><path d="M980.01 360.58L980.01 360.58" stroke="rgba(45, 52, 54, 1)" stroke-width="1.5"></path><path d="M980.01 360.58L1149.52 369.11" stroke="rgba(45, 52, 54, 1)" stroke-width="1.5"></path><path d="M947.48 544.95L947.48 544.95" stroke="rgba(45, 52, 54, 1)" stroke-width="1.5"></path><path d="M947.48 544.95L980.96 641.94" stroke="rgba(45, 52, 54, 1)" stroke-width="1.5"></path><path d="M980.96 641.94L980.96 641.94" stroke="rgba(45, 52, 54, 1)" stroke-width="1.5"></path><path d="M980.96 641.94L1132.82 665.15" stroke="rgba(45, 52, 54, 1)" stroke-width="1.5"></path><path d="M1122.92 -65.82L1122.92 -65.82" stroke="rgba(45, 52, 54, 1)" stroke-width="1.5"></path><path d="M1122.92 -65.82L1240.27 -85.19" stroke="rgba(45, 52, 54, 1)" stroke-width="1.5"></path><path d="M1122.92 -65.82L1118.38 70.01" stroke="rgba(45, 52, 54, 1)" stroke-width="1.5"></path><path d="M1122.92 -65.82L1260.28 92.66" stroke="rgba(45, 52, 54, 1)" stroke-width="1.5"></path><path d="M1122.92 -65.82L1106.8 208.32" stroke="rgba(45, 52, 54, 1)" stroke-width="1.5"></path><path d="M1118.38 70.01L1118.38 70.01" stroke="rgba(45, 52, 54, 1)" stroke-width="1.5"></path><path d="M1118.38 70.01L1106.8 208.32" stroke="rgba(45, 52, 54, 1)" stroke-width="1.5"></path><path d="M1106.8 208.32L1106.8 208.32" stroke="rgba(45, 52, 54, 1)" stroke-width="1.5"></path><path d="M1106.8 208.32L1149.52 369.11" stroke="rgba(45, 52, 54, 1)" stroke-width="1.5"></path><path d="M1106.8 208.32L1260.28 92.66" stroke="rgba(45, 52, 54, 1)" stroke-width="1.5"></path><path d="M1106.8 208.32L1295.87 259.17" stroke="rgba(45, 52, 54, 1)" stroke-width="1.5"></path><path d="M1106.8 208.32L1251.06 341.76" stroke="rgba(45, 52, 54, 1)" stroke-width="1.5"></path><path d="M1149.52 369.11L1149.52 369.11" stroke="rgba(45, 52, 54, 1)" stroke-width="1.5"></path><path d="M1149.52 369.11L1251.06 341.76" stroke="rgba(45, 52, 54, 1)" stroke-width="1.5"></path><path d="M1149.52 369.11L1295.87 259.17" stroke="rgba(45, 52, 54, 1)" stroke-width="1.5"></path><path d="M1149.52 369.11L1152.99 559.93" stroke="rgba(45, 52, 54, 1)" stroke-width="1.5"></path><path d="M1149.52 369.11L1288.09 532.28" stroke="rgba(45, 52, 54, 1)" stroke-width="1.5"></path><path d="M1152.99 559.93L1152.99 559.93" stroke="rgba(45, 52, 54, 1)" stroke-width="1.5"></path><path d="M1152.99 559.93L1132.82 665.15" stroke="rgba(45, 52, 54, 1)" stroke-width="1.5"></path><path d="M1152.99 559.93L1288.09 532.28" stroke="rgba(45, 52, 54, 1)" stroke-width="1.5"></path><path d="M1152.99 559.93L980.96 641.94" stroke="rgba(45, 52, 54, 1)" stroke-width="1.5"></path><path d="M1132.82 665.15L1132.82 665.15" stroke="rgba(45, 52, 54, 1)" stroke-width="1.5"></path><path d="M1240.27 -85.19L1240.27 -85.19" stroke="rgba(45, 52, 54, 1)" stroke-width="1.5"></path><path d="M1240.27 -85.19L1400.1 -85.49" stroke="rgba(45, 52, 54, 1)" stroke-width="1.5"></path><path d="M1240.27 -85.19L1260.28 92.66" stroke="rgba(45, 52, 54, 1)" stroke-width="1.5"></path><path d="M1260.28 92.66L1260.28 92.66" stroke="rgba(45, 52, 54, 1)" stroke-width="1.5"></path><path d="M1260.28 92.66L1118.38 70.01" stroke="rgba(45, 52, 54, 1)" stroke-width="1.5"></path><path d="M1260.28 92.66L1408.4 87.69" stroke="rgba(45, 52, 54, 1)" stroke-width="1.5"></path><path d="M1260.28 92.66L1295.87 259.17" stroke="rgba(45, 52, 54, 1)" stroke-width="1.5"></path><path d="M1295.87 259.17L1295.87 259.17" stroke="rgba(45, 52, 54, 1)" stroke-width="1.5"></path><path d="M1295.87 259.17L1251.06 341.76" stroke="rgba(45, 52, 54, 1)" stroke-width="1.5"></path><path d="M1251.06 341.76L1251.06 341.76" stroke="rgba(45, 52, 54, 1)" stroke-width="1.5"></path><path d="M1288.09 532.28L1288.09 532.28" stroke="rgba(45, 52, 54, 1)" stroke-width="1.5"></path><path d="M1288.09 532.28L1448.46 515.23" stroke="rgba(45, 52, 54, 1)" stroke-width="1.5"></path><path d="M1288.09 532.28L1310.95 693.49" stroke="rgba(45, 52, 54, 1)" stroke-width="1.5"></path><path d="M1288.09 532.28L1251.06 341.76" stroke="rgba(45, 52, 54, 1)" stroke-width="1.5"></path><path d="M1288.09 532.28L1132.82 665.15" stroke="rgba(45, 52, 54, 1)" stroke-width="1.5"></path><path d="M1288.09 532.28L1434.22 379.96" stroke="rgba(45, 52, 54, 1)" stroke-width="1.5"></path><path d="M1310.95 693.49L1310.95 693.49" stroke="rgba(45, 52, 54, 1)" stroke-width="1.5"></path><path d="M1310.95 693.49L1444.48 703.27" stroke="rgba(45, 52, 54, 1)" stroke-width="1.5"></path><path d="M1310.95 693.49L1132.82 665.15" stroke="rgba(45, 52, 54, 1)" stroke-width="1.5"></path><path d="M1310.95 693.49L1152.99 559.93" stroke="rgba(45, 52, 54, 1)" stroke-width="1.5"></path><path d="M1310.95 693.49L1448.46 515.23" stroke="rgba(45, 52, 54, 1)" stroke-width="1.5"></path><path d="M1310.95 693.49L1563.49 684.54" stroke="rgba(45, 52, 54, 1)" stroke-width="1.5"></path><path d="M1400.1 -85.49L1400.1 -85.49" stroke="rgba(45, 52, 54, 1)" stroke-width="1.5"></path><path d="M1400.1 -85.49L1552.62 -66.31" stroke="rgba(45, 52, 54, 1)" stroke-width="1.5"></path><path d="M1400.1 -85.49L1408.4 87.69" stroke="rgba(45, 52, 54, 1)" stroke-width="1.5"></path><path d="M1400.1 -85.49L1559.5 43.82" stroke="rgba(45, 52, 54, 1)" stroke-width="1.5"></path><path d="M1400.1 -85.49L1260.28 92.66" stroke="rgba(45, 52, 54, 1)" stroke-width="1.5"></path><path d="M1400.1 -85.49L1122.92 -65.82" stroke="rgba(45, 52, 54, 1)" stroke-width="1.5"></path><path d="M1408.4 87.69L1408.4 87.69" stroke="rgba(45, 52, 54, 1)" stroke-width="1.5"></path><path d="M1408.4 87.69L1559.5 43.82" stroke="rgba(45, 52, 54, 1)" stroke-width="1.5"></path><path d="M1408.4 87.69L1295.87 259.17" stroke="rgba(45, 52, 54, 1)" stroke-width="1.5"></path><path d="M1408.4 87.69L1552.62 -66.31" stroke="rgba(45, 52, 54, 1)" stroke-width="1.5"></path><path d="M1434.22 379.96L1434.22 379.96" stroke="rgba(45, 52, 54, 1)" stroke-width="1.5"></path><path d="M1434.22 379.96L1448.46 515.23" stroke="rgba(45, 52, 54, 1)" stroke-width="1.5"></path><path d="M1434.22 379.96L1600 343.6" stroke="rgba(45, 52, 54, 1)" stroke-width="1.5"></path><path d="M1448.46 515.23L1448.46 515.23" stroke="rgba(45, 52, 54, 1)" stroke-width="1.5"></path><path d="M1448.46 515.23L1579.3 532.05" stroke="rgba(45, 52, 54, 1)" stroke-width="1.5"></path><path d="M1448.46 515.23L1444.48 703.27" stroke="rgba(45, 52, 54, 1)" stroke-width="1.5"></path><path d="M1448.46 515.23L1563.49 684.54" stroke="rgba(45, 52, 54, 1)" stroke-width="1.5"></path><path d="M1444.48 703.27L1444.48 703.27" stroke="rgba(45, 52, 54, 1)" stroke-width="1.5"></path><path d="M1444.48 703.27L1563.49 684.54" stroke="rgba(45, 52, 54, 1)" stroke-width="1.5"></path><path d="M1552.62 -66.31L1552.62 -66.31" stroke="rgba(45, 52, 54, 1)" stroke-width="1.5"></path><path d="M1552.62 -66.31L1559.5 43.82" stroke="rgba(45, 52, 54, 1)" stroke-width="1.5"></path><path d="M1559.5 43.82L1559.5 43.82" stroke="rgba(45, 52, 54, 1)" stroke-width="1.5"></path><path d="M1559.5 43.82L1568.84 228.58" stroke="rgba(45, 52, 54, 1)" stroke-width="1.5"></path><path d="M1559.5 43.82L1600 343.6" stroke="rgba(45, 52, 54, 1)" stroke-width="1.5"></path><path d="M1568.84 228.58L1568.84 228.58" stroke="rgba(45, 52, 54, 1)" stroke-width="1.5"></path><path d="M1568.84 228.58L1600 343.6" stroke="rgba(45, 52, 54, 1)" stroke-width="1.5"></path><path d="M1568.84 228.58L1434.22 379.96" stroke="rgba(45, 52, 54, 1)" stroke-width="1.5"></path><path d="M1568.84 228.58L1408.4 87.69" stroke="rgba(45, 52, 54, 1)" stroke-width="1.5"></path><path d="M1600 343.6L1600 343.6" stroke="rgba(45, 52, 54, 1)" stroke-width="1.5"></path><path d="M1600 343.6L1579.3 532.05" stroke="rgba(45, 52, 54, 1)" stroke-width="1.5"></path><path d="M1600 343.6L1448.46 515.23" stroke="rgba(45, 52, 54, 1)" stroke-width="1.5"></path><path d="M1579.3 532.05L1579.3 532.05" stroke="rgba(45, 52, 54, 1)" stroke-width="1.5"></path><path d="M1579.3 532.05L1563.49 684.54" stroke="rgba(45, 52, 54, 1)" stroke-width="1.5"></path><path d="M1579.3 532.05L1434.22 379.96" stroke="rgba(45, 52, 54, 1)" stroke-width="1.5"></path><path d="M1579.3 532.05L1444.48 703.27" stroke="rgba(45, 52, 54, 1)" stroke-width="1.5"></path><path d="M1563.49 684.54L1563.49 684.54" stroke="rgba(45, 52, 54, 1)" stroke-width="1.5"></path><circle r="5" cx="-59.65" cy="342.52" fill="rgba(45, 52, 54, 1)"></circle><circle r="5" cx="-84.5" cy="558.74" fill="rgba(45, 52, 54, 1)"></circle><circle r="5" cx="-46.03" cy="695.95" fill="rgba(45, 52, 54, 1)"></circle><circle r="5" cx="62.5" cy="404.35" fill="rgba(45, 52, 54, 1)"></circle><circle r="5" cx="38.8" cy="650.96" fill="rgba(45, 52, 54, 1)"></circle><circle r="5" cx="207.61" cy="394.02" fill="rgba(45, 52, 54, 1)"></circle><circle r="5" cx="226.53" cy="539.21" fill="rgba(45, 52, 54, 1)"></circle><circle r="5" cx="212.46" cy="680.86" fill="rgba(45, 52, 54, 1)"></circle><circle r="5" cx="398.69" cy="381.13" fill="rgba(45, 52, 54, 1)"></circle><circle r="5" cx="381.63" cy="498.1" fill="rgba(45, 52, 54, 1)"></circle><circle r="5" cx="386.39" cy="709.14" fill="rgba(45, 52, 54, 1)"></circle><circle r="5" cx="495.46" cy="510.11" fill="rgba(45, 52, 54, 1)"></circle><circle r="5" cx="665.32" cy="224.28" fill="rgba(45, 52, 54, 1)"></circle><circle r="5" cx="706.64" cy="551.18" fill="rgba(45, 52, 54, 1)"></circle><circle r="5" cx="679.46" cy="677.12" fill="rgba(45, 52, 54, 1)"></circle><circle r="5" cx="787.8" cy="191.37" fill="rgba(45, 52, 54, 1)"></circle><circle r="5" cx="817.4" cy="411.34" fill="rgba(45, 52, 54, 1)"></circle><circle r="5" cx="833.3" cy="547.21" fill="rgba(45, 52, 54, 1)"></circle><circle r="5" cx="817.28" cy="653.83" fill="rgba(45, 52, 54, 1)"></circle><circle r="5" cx="981.02" cy="-60.62" fill="rgba(45, 52, 54, 1)"></circle><circle r="5" cx="940.75" cy="91.94" fill="rgba(45, 52, 54, 1)"></circle><circle r="5" cx="950.08" cy="230.68" fill="rgba(45, 52, 54, 1)"></circle><circle r="5" cx="980.01" cy="360.58" fill="rgba(45, 52, 54, 1)"></circle><circle r="5" cx="947.48" cy="544.95" fill="rgba(45, 52, 54, 1)"></circle><circle r="5" cx="980.96" cy="641.94" fill="rgba(45, 52, 54, 1)"></circle><circle r="5" cx="1122.92" cy="-65.82" fill="rgba(45, 52, 54, 1)"></circle><circle r="5" cx="1118.38" cy="70.01" fill="rgba(45, 52, 54, 1)"></circle><circle r="5" cx="1106.8" cy="208.32" fill="rgba(45, 52, 54, 1)"></circle><circle r="5" cx="1149.52" cy="369.11" fill="rgba(45, 52, 54, 1)"></circle><circle r="5" cx="1152.99" cy="559.93" fill="rgba(45, 52, 54, 1)"></circle><circle r="5" cx="1132.82" cy="665.15" fill="rgba(45, 52, 54, 1)"></circle><circle r="5" cx="1240.27" cy="-85.19" fill="rgba(45, 52, 54, 1)"></circle><circle r="5" cx="1260.28" cy="92.66" fill="rgba(45, 52, 54, 1)"></circle><circle r="5" cx="1295.87" cy="259.17" fill="rgba(45, 52, 54, 1)"></circle><circle r="5" cx="1251.06" cy="341.76" fill="rgba(45, 52, 54, 1)"></circle><circle r="5" cx="1288.09" cy="532.28" fill="rgba(45, 52, 54, 1)"></circle><circle r="5" cx="1310.95" cy="693.49" fill="rgba(45, 52, 54, 1)"></circle><circle r="5" cx="1400.1" cy="-85.49" fill="rgba(45, 52, 54, 1)"></circle><circle r="5" cx="1408.4" cy="87.69" fill="rgba(45, 52, 54, 1)"></circle><circle r="5" cx="1434.22" cy="379.96" fill="rgba(45, 52, 54, 1)"></circle><circle r="5" cx="1448.46" cy="515.23" fill="rgba(45, 52, 54, 1)"></circle><circle r="5" cx="1444.48" cy="703.27" fill="rgba(45, 52, 54, 1)"></circle><circle r="5" cx="1552.62" cy="-66.31" fill="rgba(45, 52, 54, 1)"></circle><circle r="5" cx="1559.5" cy="43.82" fill="rgba(45, 52, 54, 1)"></circle><circle r="5" cx="1568.84" cy="228.58" fill="rgba(45, 52, 54, 1)"></circle><circle r="5" cx="1600" cy="343.6" fill="rgba(45, 52, 54, 1)"></circle><circle r="5" cx="1579.3" cy="532.05" fill="rgba(45, 52, 54, 1)"></circle><circle r="5" cx="1563.49" cy="684.54" fill="rgba(45, 52, 54, 1)"></circle><path d="M196.54 681.74L196.54 681.74" stroke="hsl(243.5, 100%, 90.2%)" stroke-width="1.5"></path><path d="M196.54 681.74L43.25 645.64" stroke="hsl(243.5, 100%, 90.2%)" stroke-width="1.5"></path><path d="M196.54 681.74L356.95 699.18" stroke="hsl(243.5, 100%, 90.2%)" stroke-width="1.5"></path><path d="M196.54 681.74L261.47 530.05" stroke="hsl(243.5, 100%, 90.2%)" stroke-width="1.5"></path><path d="M196.54 681.74L378.6 551.07" stroke="hsl(243.5, 100%, 90.2%)" stroke-width="1.5"></path><path d="M542.93 527.51L542.93 527.51" stroke="hsl(243.5, 100%, 90.2%)" stroke-width="1.5"></path><path d="M542.93 527.51L561.15 664.06" stroke="hsl(243.5, 100%, 90.2%)" stroke-width="1.5"></path><path d="M542.93 527.51L695.53 491.25" stroke="hsl(243.5, 100%, 90.2%)" stroke-width="1.5"></path><path d="M542.93 527.51L378.6 551.07" stroke="hsl(243.5, 100%, 90.2%)" stroke-width="1.5"></path><path d="M834.57 526.72L834.57 526.72" stroke="hsl(243.5, 100%, 90.2%)" stroke-width="1.5"></path><path d="M834.57 526.72L695.53 491.25" stroke="hsl(243.5, 100%, 90.2%)" stroke-width="1.5"></path><path d="M834.57 526.72L843.42 686.96" stroke="hsl(243.5, 100%, 90.2%)" stroke-width="1.5"></path><path d="M834.57 526.72L995.82 508.98" stroke="hsl(243.5, 100%, 90.2%)" stroke-width="1.5"></path><path d="M834.57 526.72L951.25 687.07" stroke="hsl(243.5, 100%, 90.2%)" stroke-width="1.5"></path><path d="M834.57 526.72L666.29 407.19" stroke="hsl(243.5, 100%, 90.2%)" stroke-width="1.5"></path><path d="M834.57 526.72L674.82 688.06" stroke="hsl(243.5, 100%, 90.2%)" stroke-width="1.5"></path><path d="M1157.92 46.55L1157.92 46.55" stroke="hsl(243.5, 100%, 90.2%)" stroke-width="1.5"></path><path d="M1157.92 46.55L1250.73 96.33" stroke="hsl(243.5, 100%, 90.2%)" stroke-width="1.5"></path><path d="M1157.92 46.55L1248.73 -93.66" stroke="hsl(243.5, 100%, 90.2%)" stroke-width="1.5"></path><path d="M1250.73 96.33L1250.73 96.33" stroke="hsl(243.5, 100%, 90.2%)" stroke-width="1.5"></path><path d="M1250.73 96.33L1302.07 237.57" stroke="hsl(243.5, 100%, 90.2%)" stroke-width="1.5"></path><path d="M1302.07 237.57L1302.07 237.57" stroke="hsl(243.5, 100%, 90.2%)" stroke-width="1.5"></path><path d="M1302.07 237.57L1430.72 253.34" stroke="hsl(243.5, 100%, 90.2%)" stroke-width="1.5"></path><path d="M1302.07 237.57L1388.35 347.84" stroke="hsl(243.5, 100%, 90.2%)" stroke-width="1.5"></path><path d="M1302.07 237.57L1292.89 385.83" stroke="hsl(243.5, 100%, 90.2%)" stroke-width="1.5"></path><path d="M1302.07 237.57L1121.14 234.51" stroke="hsl(243.5, 100%, 90.2%)" stroke-width="1.5"></path><path d="M1302.07 237.57L1149.66 389.24" stroke="hsl(243.5, 100%, 90.2%)" stroke-width="1.5"></path><path d="M1297.86 700.76L1297.86 700.76" stroke="hsl(243.5, 100%, 90.2%)" stroke-width="1.5"></path><path d="M1297.86 700.76L1447.72 640.47" stroke="hsl(243.5, 100%, 90.2%)" stroke-width="1.5"></path><path d="M1297.86 700.76L1456.51 554.29" stroke="hsl(243.5, 100%, 90.2%)" stroke-width="1.5"></path><path d="M1297.86 700.76L1162.18 488.77" stroke="hsl(243.5, 100%, 90.2%)" stroke-width="1.5"></path><path d="M1297.86 700.76L1577.19 712.46" stroke="hsl(243.5, 100%, 90.2%)" stroke-width="1.5"></path><path d="M1297.86 700.76L1292.89 385.83" stroke="hsl(243.5, 100%, 90.2%)" stroke-width="1.5"></path><path d="M1409.39 -102.17L1409.39 -102.17" stroke="hsl(243.5, 100%, 90.2%)" stroke-width="1.5"></path><path d="M1409.39 -102.17L1248.73 -93.66" stroke="hsl(243.5, 100%, 90.2%)" stroke-width="1.5"></path><path d="M1409.39 -102.17L1454.97 64.16" stroke="hsl(243.5, 100%, 90.2%)" stroke-width="1.5"></path><path d="M1409.39 -102.17L1591.66 -61.16" stroke="hsl(243.5, 100%, 90.2%)" stroke-width="1.5"></path><path d="M1409.39 -102.17L1250.73 96.33" stroke="hsl(243.5, 100%, 90.2%)" stroke-width="1.5"></path><path d="M1409.39 -102.17L1157.92 46.55" stroke="hsl(243.5, 100%, 90.2%)" stroke-width="1.5"></path><path d="M-81.98 546.54L-81.98 546.54" stroke="hsl(243.5, 100%, 90.2%)" stroke-width="1.5"></path><path d="M-81.98 546.54L-50.06 678.02" stroke="hsl(243.5, 100%, 90.2%)" stroke-width="1.5"></path><path d="M-81.98 546.54L66.72 490.58" stroke="hsl(243.5, 100%, 90.2%)" stroke-width="1.5"></path><path d="M-81.98 546.54L43.25 645.64" stroke="hsl(243.5, 100%, 90.2%)" stroke-width="1.5"></path><path d="M-81.98 546.54L196.54 681.74" stroke="hsl(243.5, 100%, 90.2%)" stroke-width="1.5"></path><path d="M-81.98 546.54L261.47 530.05" stroke="hsl(243.5, 100%, 90.2%)" stroke-width="1.5"></path><path d="M-50.06 678.02L-50.06 678.02" stroke="hsl(243.5, 100%, 90.2%)" stroke-width="1.5"></path><path d="M-50.06 678.02L43.25 645.64" stroke="hsl(243.5, 100%, 90.2%)" stroke-width="1.5"></path><path d="M-50.06 678.02L66.72 490.58" stroke="hsl(243.5, 100%, 90.2%)" stroke-width="1.5"></path><path d="M-50.06 678.02L196.54 681.74" stroke="hsl(243.5, 100%, 90.2%)" stroke-width="1.5"></path><path d="M-50.06 678.02L261.47 530.05" stroke="hsl(243.5, 100%, 90.2%)" stroke-width="1.5"></path><path d="M66.72 490.58L66.72 490.58" stroke="hsl(243.5, 100%, 90.2%)" stroke-width="1.5"></path><path d="M66.72 490.58L43.25 645.64" stroke="hsl(243.5, 100%, 90.2%)" stroke-width="1.5"></path><path d="M66.72 490.58L261.47 530.05" stroke="hsl(243.5, 100%, 90.2%)" stroke-width="1.5"></path><path d="M43.25 645.64L43.25 645.64" stroke="hsl(243.5, 100%, 90.2%)" stroke-width="1.5"></path><path d="M43.25 645.64L261.47 530.05" stroke="hsl(243.5, 100%, 90.2%)" stroke-width="1.5"></path><path d="M261.47 530.05L261.47 530.05" stroke="hsl(243.5, 100%, 90.2%)" stroke-width="1.5"></path><path d="M261.47 530.05L378.6 551.07" stroke="hsl(243.5, 100%, 90.2%)" stroke-width="1.5"></path><path d="M261.47 530.05L356.95 699.18" stroke="hsl(243.5, 100%, 90.2%)" stroke-width="1.5"></path><path d="M378.6 551.07L378.6 551.07" stroke="hsl(243.5, 100%, 90.2%)" stroke-width="1.5"></path><path d="M378.6 551.07L356.95 699.18" stroke="hsl(243.5, 100%, 90.2%)" stroke-width="1.5"></path><path d="M356.95 699.18L356.95 699.18" stroke="hsl(243.5, 100%, 90.2%)" stroke-width="1.5"></path><path d="M561.15 664.06L561.15 664.06" stroke="hsl(243.5, 100%, 90.2%)" stroke-width="1.5"></path><path d="M561.15 664.06L674.82 688.06" stroke="hsl(243.5, 100%, 90.2%)" stroke-width="1.5"></path><path d="M561.15 664.06L356.95 699.18" stroke="hsl(243.5, 100%, 90.2%)" stroke-width="1.5"></path><path d="M561.15 664.06L378.6 551.07" stroke="hsl(243.5, 100%, 90.2%)" stroke-width="1.5"></path><path d="M561.15 664.06L695.53 491.25" stroke="hsl(243.5, 100%, 90.2%)" stroke-width="1.5"></path><path d="M666.29 407.19L666.29 407.19" stroke="hsl(243.5, 100%, 90.2%)" stroke-width="1.5"></path><path d="M666.29 407.19L695.53 491.25" stroke="hsl(243.5, 100%, 90.2%)" stroke-width="1.5"></path><path d="M695.53 491.25L695.53 491.25" stroke="hsl(243.5, 100%, 90.2%)" stroke-width="1.5"></path><path d="M674.82 688.06L674.82 688.06" stroke="hsl(243.5, 100%, 90.2%)" stroke-width="1.5"></path><path d="M843.42 686.96L843.42 686.96" stroke="hsl(243.5, 100%, 90.2%)" stroke-width="1.5"></path><path d="M843.42 686.96L951.25 687.07" stroke="hsl(243.5, 100%, 90.2%)" stroke-width="1.5"></path><path d="M843.42 686.96L674.82 688.06" stroke="hsl(243.5, 100%, 90.2%)" stroke-width="1.5"></path><path d="M843.42 686.96L995.82 508.98" stroke="hsl(243.5, 100%, 90.2%)" stroke-width="1.5"></path><path d="M843.42 686.96L695.53 491.25" stroke="hsl(243.5, 100%, 90.2%)" stroke-width="1.5"></path><path d="M998.33 364.91L998.33 364.91" stroke="hsl(243.5, 100%, 90.2%)" stroke-width="1.5"></path><path d="M998.33 364.91L995.82 508.98" stroke="hsl(243.5, 100%, 90.2%)" stroke-width="1.5"></path><path d="M998.33 364.91L1149.66 389.24" stroke="hsl(243.5, 100%, 90.2%)" stroke-width="1.5"></path><path d="M998.33 364.91L1121.14 234.51" stroke="hsl(243.5, 100%, 90.2%)" stroke-width="1.5"></path><path d="M998.33 364.91L1162.18 488.77" stroke="hsl(243.5, 100%, 90.2%)" stroke-width="1.5"></path><path d="M995.82 508.98L995.82 508.98" stroke="hsl(243.5, 100%, 90.2%)" stroke-width="1.5"></path><path d="M995.82 508.98L1162.18 488.77" stroke="hsl(243.5, 100%, 90.2%)" stroke-width="1.5"></path><path d="M995.82 508.98L951.25 687.07" stroke="hsl(243.5, 100%, 90.2%)" stroke-width="1.5"></path><path d="M995.82 508.98L1149.66 389.24" stroke="hsl(243.5, 100%, 90.2%)" stroke-width="1.5"></path><path d="M951.25 687.07L951.25 687.07" stroke="hsl(243.5, 100%, 90.2%)" stroke-width="1.5"></path><path d="M1121.14 234.51L1121.14 234.51" stroke="hsl(243.5, 100%, 90.2%)" stroke-width="1.5"></path><path d="M1121.14 234.51L1149.66 389.24" stroke="hsl(243.5, 100%, 90.2%)" stroke-width="1.5"></path><path d="M1121.14 234.51L1250.73 96.33" stroke="hsl(243.5, 100%, 90.2%)" stroke-width="1.5"></path><path d="M1121.14 234.51L1157.92 46.55" stroke="hsl(243.5, 100%, 90.2%)" stroke-width="1.5"></path><path d="M1149.66 389.24L1149.66 389.24" stroke="hsl(243.5, 100%, 90.2%)" stroke-width="1.5"></path><path d="M1149.66 389.24L1162.18 488.77" stroke="hsl(243.5, 100%, 90.2%)" stroke-width="1.5"></path><path d="M1149.66 389.24L1292.89 385.83" stroke="hsl(243.5, 100%, 90.2%)" stroke-width="1.5"></path><path d="M1162.18 488.77L1162.18 488.77" stroke="hsl(243.5, 100%, 90.2%)" stroke-width="1.5"></path><path d="M1162.18 488.77L1292.89 385.83" stroke="hsl(243.5, 100%, 90.2%)" stroke-width="1.5"></path><path d="M1248.73 -93.66L1248.73 -93.66" stroke="hsl(243.5, 100%, 90.2%)" stroke-width="1.5"></path><path d="M1248.73 -93.66L1250.73 96.33" stroke="hsl(243.5, 100%, 90.2%)" stroke-width="1.5"></path><path d="M1292.89 385.83L1292.89 385.83" stroke="hsl(243.5, 100%, 90.2%)" stroke-width="1.5"></path><path d="M1292.89 385.83L1388.35 347.84" stroke="hsl(243.5, 100%, 90.2%)" stroke-width="1.5"></path><path d="M1454.97 64.16L1454.97 64.16" stroke="hsl(243.5, 100%, 90.2%)" stroke-width="1.5"></path><path d="M1454.97 64.16L1591.66 -61.16" stroke="hsl(243.5, 100%, 90.2%)" stroke-width="1.5"></path><path d="M1430.72 253.34L1430.72 253.34" stroke="hsl(243.5, 100%, 90.2%)" stroke-width="1.5"></path><path d="M1430.72 253.34L1388.35 347.84" stroke="hsl(243.5, 100%, 90.2%)" stroke-width="1.5"></path><path d="M1388.35 347.84L1388.35 347.84" stroke="hsl(243.5, 100%, 90.2%)" stroke-width="1.5"></path><path d="M1388.35 347.84L1597.74 368.82" stroke="hsl(243.5, 100%, 90.2%)" stroke-width="1.5"></path><path d="M1388.35 347.84L1456.51 554.29" stroke="hsl(243.5, 100%, 90.2%)" stroke-width="1.5"></path><path d="M1388.35 347.84L1149.66 389.24" stroke="hsl(243.5, 100%, 90.2%)" stroke-width="1.5"></path><path d="M1456.51 554.29L1456.51 554.29" stroke="hsl(243.5, 100%, 90.2%)" stroke-width="1.5"></path><path d="M1456.51 554.29L1447.72 640.47" stroke="hsl(243.5, 100%, 90.2%)" stroke-width="1.5"></path><path d="M1447.72 640.47L1447.72 640.47" stroke="hsl(243.5, 100%, 90.2%)" stroke-width="1.5"></path><path d="M1447.72 640.47L1577.19 712.46" stroke="hsl(243.5, 100%, 90.2%)" stroke-width="1.5"></path><path d="M1447.72 640.47L1569.97 533.61" stroke="hsl(243.5, 100%, 90.2%)" stroke-width="1.5"></path><path d="M1591.66 -61.16L1591.66 -61.16" stroke="hsl(243.5, 100%, 90.2%)" stroke-width="1.5"></path><path d="M1591.66 -61.16L1605.38 193.88" stroke="hsl(243.5, 100%, 90.2%)" stroke-width="1.5"></path><path d="M1591.66 -61.16L1248.73 -93.66" stroke="hsl(243.5, 100%, 90.2%)" stroke-width="1.5"></path><path d="M1591.66 -61.16L1430.72 253.34" stroke="hsl(243.5, 100%, 90.2%)" stroke-width="1.5"></path><path d="M1591.66 -61.16L1250.73 96.33" stroke="hsl(243.5, 100%, 90.2%)" stroke-width="1.5"></path><path d="M1605.38 193.88L1605.38 193.88" stroke="hsl(243.5, 100%, 90.2%)" stroke-width="1.5"></path><path d="M1605.38 193.88L1597.74 368.82" stroke="hsl(243.5, 100%, 90.2%)" stroke-width="1.5"></path><path d="M1605.38 193.88L1430.72 253.34" stroke="hsl(243.5, 100%, 90.2%)" stroke-width="1.5"></path><path d="M1605.38 193.88L1454.97 64.16" stroke="hsl(243.5, 100%, 90.2%)" stroke-width="1.5"></path><path d="M1597.74 368.82L1597.74 368.82" stroke="hsl(243.5, 100%, 90.2%)" stroke-width="1.5"></path><path d="M1597.74 368.82L1569.97 533.61" stroke="hsl(243.5, 100%, 90.2%)" stroke-width="1.5"></path><path d="M1597.74 368.82L1430.72 253.34" stroke="hsl(243.5, 100%, 90.2%)" stroke-width="1.5"></path><path d="M1597.74 368.82L1456.51 554.29" stroke="hsl(243.5, 100%, 90.2%)" stroke-width="1.5"></path><path d="M1597.74 368.82L1292.89 385.83" stroke="hsl(243.5, 100%, 90.2%)" stroke-width="1.5"></path><path d="M1569.97 533.61L1569.97 533.61" stroke="hsl(243.5, 100%, 90.2%)" stroke-width="1.5"></path><path d="M1569.97 533.61L1456.51 554.29" stroke="hsl(243.5, 100%, 90.2%)" stroke-width="1.5"></path><path d="M1569.97 533.61L1577.19 712.46" stroke="hsl(243.5, 100%, 90.2%)" stroke-width="1.5"></path><path d="M1577.19 712.46L1577.19 712.46" stroke="hsl(243.5, 100%, 90.2%)" stroke-width="1.5"></path><path d="M1577.19 712.46L1456.51 554.29" stroke="hsl(243.5, 100%, 90.2%)" stroke-width="1.5"></path><path d="M1577.19 712.46L1597.74 368.82" stroke="hsl(243.5, 100%, 90.2%)" stroke-width="1.5"></path><path d="M1577.19 712.46L1388.35 347.84" stroke="hsl(243.5, 100%, 90.2%)" stroke-width="1.5"></path><circle r="25" cx="196.54" cy="681.74" fill="url(#SvgjsRadialGradient1129)"></circle><circle r="25" cx="542.93" cy="527.51" fill="url(#SvgjsRadialGradient1129)"></circle><circle r="25" cx="834.57" cy="526.72" fill="url(#SvgjsRadialGradient1129)"></circle><circle r="25" cx="1157.92" cy="46.55" fill="url(#SvgjsRadialGradient1129)"></circle><circle r="25" cx="1250.73" cy="96.33" fill="url(#SvgjsRadialGradient1129)"></circle><circle r="25" cx="1302.07" cy="237.57" fill="url(#SvgjsRadialGradient1129)"></circle><circle r="25" cx="1297.86" cy="700.76" fill="url(#SvgjsRadialGradient1129)"></circle><circle r="25" cx="1409.39" cy="-102.17" fill="url(#SvgjsRadialGradient1129)"></circle><circle r="5" cx="-81.98" cy="546.54" fill="#b6b1ff"></circle><circle r="5" cx="-50.06" cy="678.02" fill="#b6b1ff"></circle><circle r="5" cx="66.72" cy="490.58" fill="#b6b1ff"></circle><circle r="5" cx="43.25" cy="645.64" fill="#b6b1ff"></circle><circle r="5" cx="261.47" cy="530.05" fill="#b6b1ff"></circle><circle r="5" cx="378.6" cy="551.07" fill="#b6b1ff"></circle><circle r="5" cx="356.95" cy="699.18" fill="#b6b1ff"></circle><circle r="5" cx="561.15" cy="664.06" fill="#b6b1ff"></circle><circle r="5" cx="666.29" cy="407.19" fill="#b6b1ff"></circle><circle r="5" cx="695.53" cy="491.25" fill="#b6b1ff"></circle><circle r="5" cx="674.82" cy="688.06" fill="#b6b1ff"></circle><circle r="5" cx="843.42" cy="686.96" fill="#b6b1ff"></circle><circle r="5" cx="998.33" cy="364.91" fill="#b6b1ff"></circle><circle r="5" cx="995.82" cy="508.98" fill="#b6b1ff"></circle><circle r="5" cx="951.25" cy="687.07" fill="#b6b1ff"></circle><circle r="5" cx="1121.14" cy="234.51" fill="#b6b1ff"></circle><circle r="5" cx="1149.66" cy="389.24" fill="#b6b1ff"></circle><circle r="5" cx="1162.18" cy="488.77" fill="#b6b1ff"></circle><circle r="5" cx="1248.73" cy="-93.66" fill="#b6b1ff"></circle><circle r="5" cx="1292.89" cy="385.83" fill="#b6b1ff"></circle><circle r="5" cx="1454.97" cy="64.16" fill="#b6b1ff"></circle><circle r="5" cx="1430.72" cy="253.34" fill="#b6b1ff"></circle><circle r="5" cx="1388.35" cy="347.84" fill="#b6b1ff"></circle><circle r="5" cx="1456.51" cy="554.29" fill="#b6b1ff"></circle><circle r="5" cx="1447.72" cy="640.47" fill="#b6b1ff"></circle><circle r="5" cx="1591.66" cy="-61.16" fill="#b6b1ff"></circle><circle r="5" cx="1605.38" cy="193.88" fill="#b6b1ff"></circle><circle r="5" cx="1597.74" cy="368.82" fill="#b6b1ff"></circle><circle r="5" cx="1569.97" cy="533.61" fill="#b6b1ff"></circle><circle r="5" cx="1577.19" cy="712.46" fill="#b6b1ff"></circle></g><defs><mask id="SvgjsMask1128"><rect width="1440" height="560" fill="#ffffff"></rect></mask><radialGradient id="SvgjsRadialGradient1129"><stop stop-color="#ffffff" offset="0.1"></stop><stop stop-color="rgba(108, 99, 255, 1)" offset="0.2"></stop><stop stop-color="rgba(108, 99, 255, 0)" offset="1"></stop></radialGradient></defs></svg>