<svg id="visual" viewBox="0 0 900 600" width="900" height="600" xmlns="http://www.w3.org/2000/svg" xmlns:xlink="http://www.w3.org/1999/xlink" version="1.1"><path d="M341 0L345 0L345 60L305 60L305 120L386 120L386 180L353 180L353 240L291 240L291 300L296 300L296 360L271 360L271 420L288 420L288 480L338 480L338 540L371 540L371 600L0 600L0 540L0 540L0 480L0 480L0 420L0 420L0 360L0 360L0 300L0 300L0 240L0 240L0 180L0 180L0 120L0 120L0 60L0 60L0 0L0 0Z" fill="#6c63ff"></path><path d="M278 0L299 0L299 60L250 60L250 120L208 120L208 180L330 180L330 240L309 240L309 300L311 300L311 360L261 360L261 420L264 420L264 480L264 480L264 540L321 540L321 600L0 600L0 540L0 540L0 480L0 480L0 420L0 420L0 360L0 360L0 300L0 300L0 240L0 240L0 180L0 180L0 120L0 120L0 60L0 60L0 0L0 0Z" fill="#605ad3"></path><path d="M251 0L204 0L204 60L176 60L176 120L207 120L207 180L187 180L187 240L155 240L155 300L229 300L229 360L221 360L221 420L152 420L152 480L251 480L251 540L162 540L162 600L0 600L0 540L0 540L0 480L0 480L0 420L0 420L0 360L0 360L0 300L0 300L0 240L0 240L0 180L0 180L0 120L0 120L0 60L0 60L0 0L0 0Z" fill="#5551a8"></path><path d="M94 0L186 0L186 60L124 60L124 120L119 120L119 180L95 180L95 240L186 240L186 300L108 300L108 360L92 360L92 420L159 420L159 480L162 480L162 540L154 540L154 600L0 600L0 540L0 540L0 480L0 480L0 420L0 420L0 360L0 360L0 300L0 300L0 240L0 240L0 180L0 180L0 120L0 120L0 60L0 60L0 0L0 0Z" fill="#4a477e"></path><path d="M36 0L95 0L95 60L93 60L93 120L31 120L31 180L119 180L119 240L79 240L79 300L101 300L101 360L87 360L87 420L111 420L111 480L47 480L47 540L62 540L62 600L0 600L0 540L0 540L0 480L0 480L0 420L0 420L0 360L0 360L0 300L0 300L0 240L0 240L0 180L0 180L0 120L0 120L0 60L0 60L0 0L0 0Z" fill="#3f3d56"></path></svg>