<svg id="visual" viewBox="0 0 900 600" width="900" height="600" xmlns="http://www.w3.org/2000/svg" xmlns:xlink="http://www.w3.org/1999/xlink" version="1.1"><path d="M0 379L21.5 387.8C43 396.7 86 414.3 128.8 424.8C171.7 435.3 214.3 438.7 257.2 426.3C300 414 343 386 385.8 381.5C428.7 377 471.3 396 514.2 396.5C557 397 600 379 642.8 383.7C685.7 388.3 728.3 415.7 771.2 421.5C814 427.3 857 411.7 878.5 403.8L900 396L900 601L878.5 601C857 601 814 601 771.2 601C728.3 601 685.7 601 642.8 601C600 601 557 601 514.2 601C471.3 601 428.7 601 385.8 601C343 601 300 601 257.2 601C214.3 601 171.7 601 128.8 601C86 601 43 601 21.5 601L0 601Z" fill="#3f3d56"></path><path d="M0 437L21.5 433.8C43 430.7 86 424.3 128.8 426.3C171.7 428.3 214.3 438.7 257.2 448.5C300 458.3 343 467.7 385.8 459.5C428.7 451.3 471.3 425.7 514.2 418.2C557 410.7 600 421.3 642.8 432.5C685.7 443.7 728.3 455.3 771.2 451.7C814 448 857 429 878.5 419.5L900 410L900 601L878.5 601C857 601 814 601 771.2 601C728.3 601 685.7 601 642.8 601C600 601 557 601 514.2 601C471.3 601 428.7 601 385.8 601C343 601 300 601 257.2 601C214.3 601 171.7 601 128.8 601C86 601 43 601 21.5 601L0 601Z" fill="#4a477e"></path><path d="M0 495L21.5 495C43 495 86 495 128.8 495C171.7 495 214.3 495 257.2 496.5C300 498 343 501 385.8 497.2C428.7 493.3 471.3 482.7 514.2 478.7C557 474.7 600 477.3 642.8 483C685.7 488.7 728.3 497.3 771.2 490.7C814 484 857 462 878.5 451L900 440L900 601L878.5 601C857 601 814 601 771.2 601C728.3 601 685.7 601 642.8 601C600 601 557 601 514.2 601C471.3 601 428.7 601 385.8 601C343 601 300 601 257.2 601C214.3 601 171.7 601 128.8 601C86 601 43 601 21.5 601L0 601Z" fill="#5551a8"></path><path d="M0 512L21.5 514.5C43 517 86 522 128.8 525C171.7 528 214.3 529 257.2 529.7C300 530.3 343 530.7 385.8 532.8C428.7 535 471.3 539 514.2 538.8C557 538.7 600 534.3 642.8 534.2C685.7 534 728.3 538 771.2 539.5C814 541 857 540 878.5 539.5L900 539L900 601L878.5 601C857 601 814 601 771.2 601C728.3 601 685.7 601 642.8 601C600 601 557 601 514.2 601C471.3 601 428.7 601 385.8 601C343 601 300 601 257.2 601C214.3 601 171.7 601 128.8 601C86 601 43 601 21.5 601L0 601Z" fill="#605ad3"></path><path d="M0 572L21.5 565.5C43 559 86 546 128.8 542.5C171.7 539 214.3 545 257.2 546.8C300 548.7 343 546.3 385.8 549.2C428.7 552 471.3 560 514.2 562C557 564 600 560 642.8 554.8C685.7 549.7 728.3 543.3 771.2 539C814 534.7 857 532.3 878.5 531.2L900 530L900 601L878.5 601C857 601 814 601 771.2 601C728.3 601 685.7 601 642.8 601C600 601 557 601 514.2 601C471.3 601 428.7 601 385.8 601C343 601 300 601 257.2 601C214.3 601 171.7 601 128.8 601C86 601 43 601 21.5 601L0 601Z" fill="#6c63ff"></path></svg>